<svg width="173" height="369" viewBox="0 0 173 369" fill="none" xmlns="http://www.w3.org/2000/svg">
<path d="M86.1874 48.2865C72.9198 48.236 62.2274 37.7299 62.2764 24.8485C62.3254 11.9672 73.0975 1.54274 86.3651 1.59323C99.6326 1.64372 110.325 12.1498 110.276 25.0312C110.227 37.9125 99.4549 48.337 86.1874 48.2865Z" fill="#0078CC" stroke="#0078CC"/>
<path d="M85.5017 367.461C72.2342 367.411 61.5417 356.904 61.5908 344.023C61.6398 331.142 72.4119 320.717 85.6794 320.768C98.947 320.818 109.639 331.324 109.59 344.206C109.541 357.087 98.7693 367.511 85.5017 367.461Z" fill="#0078CC" stroke="#0078CC"/>
<path d="M85.8446 277.374C72.577 277.323 61.8846 266.817 61.9336 253.936C61.9826 241.054 72.7547 230.63 86.0223 230.68C99.2899 230.731 109.982 241.237 109.933 254.118C109.884 267 99.1122 277.424 85.8446 277.374Z" fill="#0078CC" stroke="#0078CC"/>
<line x1="85.7621" y1="230.184" x2="85.7621" y2="182.999" stroke="#0078CC"/>
<line x1="85.762" y1="320.27" x2="85.762" y2="277.875" stroke="#0078CC"/>
<path d="M86.4309 31.2922L86.4309 20.7322L87.1189 21.4842L83.9029 21.4842L83.9029 20.0922L88.0149 20.0922L88.0149 31.2922L86.4309 31.2922Z" fill="#E8E8E8"/>
<path d="M82.0232 260.613L82.0232 259.525L86.5832 255.125C86.9885 254.741 87.2872 254.405 87.4792 254.117C87.6819 253.818 87.8152 253.546 87.8792 253.301C87.9539 253.045 87.9912 252.8 87.9912 252.565C87.9912 251.989 87.7885 251.536 87.3832 251.205C86.9779 250.874 86.3859 250.709 85.6072 250.709C85.0099 250.709 84.4712 250.81 83.9912 251.013C83.5112 251.205 83.0952 251.509 82.7432 251.925L81.6552 250.981C82.0819 250.437 82.6525 250.021 83.3672 249.733C84.0925 249.434 84.8872 249.285 85.7512 249.285C86.5299 249.285 87.2072 249.413 87.7832 249.669C88.3592 249.914 88.8019 250.272 89.1112 250.741C89.4312 251.21 89.5912 251.765 89.5912 252.405C89.5912 252.768 89.5432 253.125 89.4472 253.477C89.3512 253.829 89.1699 254.202 88.9032 254.597C88.6365 254.992 88.2525 255.434 87.7512 255.925L83.6872 259.845L83.3032 259.221L90.0712 259.221L90.0712 260.613L82.0232 260.613Z" fill="#E8E8E8"/>
<path d="M85.2804 350.828C84.4911 350.828 83.7231 350.706 82.9764 350.46C82.2404 350.215 81.6377 349.884 81.1684 349.468L81.9044 348.204C82.2777 348.556 82.7631 348.844 83.3604 349.068C83.9577 349.292 84.5977 349.404 85.2804 349.404C86.1124 349.404 86.7577 349.228 87.2164 348.876C87.6857 348.514 87.9204 348.028 87.9204 347.42C87.9204 346.834 87.6964 346.364 87.2484 346.012C86.8111 345.65 86.1124 345.468 85.1524 345.468L84.2564 345.468L84.2564 344.348L87.5844 340.252L87.8084 340.892L81.6804 340.892L81.6804 339.5L89.0724 339.5L89.0724 340.588L85.7604 344.668L84.9284 344.172L85.4564 344.172C86.8111 344.172 87.8244 344.476 88.4964 345.084C89.1791 345.692 89.5204 346.466 89.5204 347.404C89.5204 348.034 89.3657 348.61 89.0564 349.132C88.7471 349.655 88.2777 350.071 87.6484 350.38C87.0297 350.679 86.2404 350.828 85.2804 350.828Z" fill="#E8E8E8"/>
<path d="M21.6624 103L21.6624 93.2L25.7924 93.2C26.8377 93.2 27.757 93.4053 28.5504 93.816C29.353 94.2266 29.9737 94.8006 30.4124 95.538C30.8604 96.2753 31.0844 97.1293 31.0844 98.1C31.0844 99.0706 30.8604 99.9246 30.4124 100.662C29.9737 101.399 29.353 101.973 28.5504 102.384C27.757 102.795 26.8377 103 25.7924 103L21.6624 103ZM23.0624 101.782L25.7084 101.782C26.5204 101.782 27.2204 101.628 27.8084 101.32C28.4057 101.012 28.8677 100.583 29.1944 100.032C29.521 99.472 29.6844 98.828 29.6844 98.1C29.6844 97.3626 29.521 96.7186 29.1944 96.168C28.8677 95.6173 28.4057 95.188 27.8084 94.88C27.2204 94.572 26.5204 94.418 25.7084 94.418L23.0624 94.418L23.0624 101.782ZM37.6388 103L37.6388 101.432L37.5688 101.138L37.5688 98.464C37.5688 97.8946 37.4008 97.456 37.0648 97.148C36.7381 96.8306 36.2435 96.672 35.5808 96.672C35.1421 96.672 34.7128 96.7466 34.2928 96.896C33.8728 97.036 33.5181 97.2273 33.2288 97.47L32.6688 96.462C33.0515 96.154 33.5088 95.9206 34.0408 95.762C34.5821 95.594 35.1468 95.51 35.7348 95.51C36.7521 95.51 37.5361 95.7573 38.0868 96.252C38.6375 96.7466 38.9128 97.5026 38.9128 98.52L38.9128 103L37.6388 103ZM35.2028 103.084C34.6521 103.084 34.1668 102.991 33.7468 102.804C33.3361 102.617 33.0188 102.361 32.7948 102.034C32.5708 101.698 32.4588 101.32 32.4588 100.9C32.4588 100.499 32.5521 100.135 32.7388 99.808C32.9348 99.4813 33.2475 99.22 33.6768 99.024C34.1155 98.828 34.7035 98.73 35.4408 98.73L37.7928 98.73L37.7928 99.696L35.4968 99.696C34.8248 99.696 34.3721 99.808 34.1388 100.032C33.9055 100.256 33.7888 100.527 33.7888 100.844C33.7888 101.208 33.9335 101.502 34.2228 101.726C34.5121 101.941 34.9135 102.048 35.4268 102.048C35.9308 102.048 36.3695 101.936 36.7428 101.712C37.1255 101.488 37.4008 101.161 37.5688 100.732L37.8348 101.656C37.6575 102.095 37.3448 102.445 36.8968 102.706C36.4488 102.958 35.8841 103.084 35.2028 103.084ZM43.948 103.084C43.2013 103.084 42.6226 102.883 42.212 102.482C41.8013 102.081 41.596 101.507 41.596 100.76L41.596 93.956L42.94 93.956L42.94 100.704C42.94 101.105 43.038 101.413 43.234 101.628C43.4393 101.843 43.7286 101.95 44.102 101.95C44.522 101.95 44.872 101.833 45.152 101.6L45.572 102.566C45.3666 102.743 45.1193 102.874 44.83 102.958C44.55 103.042 44.256 103.084 43.948 103.084ZM40.336 96.686L40.336 95.58L45.068 95.58L45.068 96.686L40.336 96.686ZM51.8029 103L51.8029 101.432L51.7329 101.138L51.7329 98.464C51.7329 97.8946 51.5649 97.456 51.2289 97.148C50.9022 96.8306 50.4075 96.672 49.7449 96.672C49.3062 96.672 48.8769 96.7466 48.4569 96.896C48.0369 97.036 47.6822 97.2273 47.3929 97.47L46.8329 96.462C47.2155 96.154 47.6729 95.9206 48.2049 95.762C48.7462 95.594 49.3109 95.51 49.8989 95.51C50.9162 95.51 51.7002 95.7573 52.2509 96.252C52.8015 96.7466 53.0769 97.5026 53.0769 98.52L53.0769 103L51.8029 103ZM49.3669 103.084C48.8162 103.084 48.3309 102.991 47.9109 102.804C47.5002 102.617 47.1829 102.361 46.9589 102.034C46.7349 101.698 46.6229 101.32 46.6229 100.9C46.6229 100.499 46.7162 100.135 46.9029 99.808C47.0989 99.4813 47.4115 99.22 47.8409 99.024C48.2795 98.828 48.8675 98.73 49.6049 98.73L51.9569 98.73L51.9569 99.696L49.6609 99.696C48.9889 99.696 48.5362 99.808 48.3029 100.032C48.0695 100.256 47.9529 100.527 47.9529 100.844C47.9529 101.208 48.0975 101.502 48.3869 101.726C48.6762 101.941 49.0775 102.048 49.5909 102.048C50.0949 102.048 50.5335 101.936 50.9069 101.712C51.2895 101.488 51.5649 101.161 51.7329 100.732L51.9989 101.656C51.8215 102.095 51.5089 102.445 51.0609 102.706C50.6129 102.958 50.0482 103.084 49.3669 103.084ZM59.5198 103L59.5198 94.922C59.5198 94.194 59.7298 93.6153 60.1498 93.186C60.5791 92.7473 61.1858 92.528 61.9698 92.528C62.2591 92.528 62.5345 92.5653 62.7958 92.64C63.0665 92.7053 63.2951 92.8126 63.4818 92.962L63.0758 93.984C62.9358 93.872 62.7771 93.788 62.5998 93.732C62.4225 93.6666 62.2358 93.634 62.0398 93.634C61.6478 93.634 61.3491 93.746 61.1438 93.97C60.9385 94.1846 60.8358 94.5066 60.8358 94.936L60.8358 95.93L60.8638 96.546L60.8638 103L59.5198 103ZM58.2598 96.686L58.2598 95.58L62.9918 95.58L62.9918 96.686L58.2598 96.686ZM64.2594 103L64.2594 95.58L65.5474 95.58L65.5474 97.596L65.4214 97.092C65.6267 96.5786 65.972 96.1866 66.4574 95.916C66.9427 95.6453 67.54 95.51 68.2494 95.51L68.2494 96.812C68.1934 96.8026 68.1374 96.798 68.0814 96.798C68.0347 96.798 67.988 96.798 67.9414 96.798C67.2227 96.798 66.6534 97.0126 66.2334 97.442C65.8134 97.8713 65.6034 98.492 65.6034 99.304L65.6034 103L64.2594 103ZM73.0155 103.084C72.2688 103.084 71.6061 102.921 71.0275 102.594C70.4488 102.267 69.9915 101.819 69.6555 101.25C69.3195 100.671 69.1515 100.018 69.1515 99.29C69.1515 98.5526 69.3195 97.8993 69.6555 97.33C69.9915 96.7606 70.4488 96.3173 71.0275 96C71.6061 95.6733 72.2688 95.51 73.0155 95.51C73.7528 95.51 74.4108 95.6733 74.9895 96C75.5775 96.3173 76.0348 96.7606 76.3615 97.33C76.6975 97.89 76.8655 98.5433 76.8655 99.29C76.8655 100.027 76.6975 100.681 76.3615 101.25C76.0348 101.819 75.5775 102.267 74.9895 102.594C74.4108 102.921 73.7528 103.084 73.0155 103.084ZM73.0155 101.908C73.4915 101.908 73.9161 101.801 74.2895 101.586C74.6721 101.371 74.9708 101.068 75.1855 100.676C75.4001 100.275 75.5075 99.8126 75.5075 99.29C75.5075 98.758 75.4001 98.3006 75.1855 97.918C74.9708 97.526 74.6721 97.2226 74.2895 97.008C73.9161 96.7933 73.4915 96.686 73.0155 96.686C72.5395 96.686 72.1148 96.7933 71.7415 97.008C71.3681 97.2226 71.0695 97.526 70.8455 97.918C70.6215 98.3006 70.5095 98.758 70.5095 99.29C70.5095 99.8126 70.6215 100.275 70.8455 100.676C71.0695 101.068 71.3681 101.371 71.7415 101.586C72.1148 101.801 72.5395 101.908 73.0155 101.908ZM88.0062 95.51C88.6035 95.51 89.1309 95.6266 89.5882 95.86C90.0455 96.0933 90.4002 96.448 90.6522 96.924C90.9135 97.4 91.0442 98.002 91.0442 98.73L91.0442 103L89.7002 103L89.7002 98.884C89.7002 98.1653 89.5322 97.624 89.1962 97.26C88.8602 96.896 88.3889 96.714 87.7822 96.714C87.3342 96.714 86.9422 96.8073 86.6062 96.994C86.2702 97.1806 86.0089 97.456 85.8222 97.82C85.6449 98.184 85.5562 98.6366 85.5562 99.178L85.5562 103L84.2122 103L84.2122 98.884C84.2122 98.1653 84.0442 97.624 83.7082 97.26C83.3815 96.896 82.9102 96.714 82.2942 96.714C81.8555 96.714 81.4682 96.8073 81.1322 96.994C80.7962 97.1806 80.5349 97.456 80.3482 97.82C80.1615 98.184 80.0682 98.6366 80.0682 99.178L80.0682 103L78.7242 103L78.7242 95.58L80.0122 95.58L80.0122 97.554L79.8022 97.05C80.0355 96.5646 80.3949 96.1866 80.8802 95.916C81.3655 95.6453 81.9302 95.51 82.5742 95.51C83.2835 95.51 83.8949 95.6873 84.4082 96.042C84.9215 96.3873 85.2575 96.9146 85.4162 97.624L84.8702 97.4C85.0942 96.8306 85.4862 96.3733 86.0462 96.028C86.6062 95.6826 87.2595 95.51 88.0062 95.51ZM97.5989 103.084C97.3376 103.084 97.1136 102.995 96.9269 102.818C96.7403 102.631 96.6469 102.398 96.6469 102.118C96.6469 101.838 96.7403 101.609 96.9269 101.432C97.1136 101.255 97.3376 101.166 97.5989 101.166C97.8509 101.166 98.0656 101.255 98.2429 101.432C98.4296 101.609 98.5229 101.838 98.5229 102.118C98.5229 102.398 98.4296 102.631 98.2429 102.818C98.0656 102.995 97.8509 103.084 97.5989 103.084ZM103.519 103.084C102.763 103.084 102.086 102.921 101.489 102.594C100.901 102.267 100.439 101.819 100.103 101.25C99.7667 100.681 99.5987 100.027 99.5987 99.29C99.5987 98.5526 99.7667 97.8993 100.103 97.33C100.439 96.7606 100.901 96.3173 101.489 96C102.086 95.6733 102.763 95.51 103.519 95.51C104.191 95.51 104.788 95.6453 105.311 95.916C105.843 96.1773 106.253 96.5693 106.543 97.092L105.521 97.75C105.278 97.386 104.979 97.12 104.625 96.952C104.279 96.7746 103.906 96.686 103.505 96.686C103.019 96.686 102.585 96.7933 102.203 97.008C101.82 97.2226 101.517 97.526 101.293 97.918C101.069 98.3006 100.957 98.758 100.957 99.29C100.957 99.822 101.069 100.284 101.293 100.676C101.517 101.068 101.82 101.371 102.203 101.586C102.585 101.801 103.019 101.908 103.505 101.908C103.906 101.908 104.279 101.824 104.625 101.656C104.979 101.479 105.278 101.208 105.521 100.844L106.543 101.488C106.253 102.001 105.843 102.398 105.311 102.678C104.788 102.949 104.191 103.084 103.519 103.084ZM110.411 103.084C109.795 103.084 109.207 103 108.647 102.832C108.096 102.664 107.662 102.459 107.345 102.216L107.905 101.152C108.222 101.367 108.614 101.549 109.081 101.698C109.547 101.847 110.023 101.922 110.509 101.922C111.134 101.922 111.582 101.833 111.853 101.656C112.133 101.479 112.273 101.231 112.273 100.914C112.273 100.681 112.189 100.499 112.021 100.368C111.853 100.237 111.629 100.139 111.349 100.074C111.078 100.009 110.775 99.9526 110.439 99.906C110.103 99.85 109.767 99.7846 109.431 99.71C109.095 99.626 108.787 99.514 108.507 99.374C108.227 99.2246 108.003 99.024 107.835 98.772C107.667 98.5106 107.583 98.1653 107.583 97.736C107.583 97.288 107.709 96.896 107.961 96.56C108.213 96.224 108.567 95.9673 109.025 95.79C109.491 95.6033 110.042 95.51 110.677 95.51C111.162 95.51 111.652 95.5706 112.147 95.692C112.651 95.804 113.061 95.9673 113.379 96.182L112.805 97.246C112.469 97.022 112.119 96.868 111.755 96.784C111.391 96.7 111.027 96.658 110.663 96.658C110.075 96.658 109.636 96.756 109.347 96.952C109.057 97.1386 108.913 97.3813 108.913 97.68C108.913 97.932 108.997 98.128 109.165 98.268C109.342 98.3986 109.566 98.5013 109.837 98.576C110.117 98.6506 110.425 98.716 110.761 98.772C111.097 98.8186 111.433 98.884 111.769 98.968C112.105 99.0426 112.408 99.15 112.679 99.29C112.959 99.43 113.183 99.626 113.351 99.878C113.528 100.13 113.617 100.466 113.617 100.886C113.617 101.334 113.486 101.721 113.225 102.048C112.963 102.375 112.595 102.631 112.119 102.818C111.643 102.995 111.073 103.084 110.411 103.084ZM117.106 103L113.858 95.58L115.258 95.58L118.142 102.3L117.47 102.3L120.41 95.58L121.726 95.58L118.478 103L117.106 103ZM126.936 103L126.936 94.922C126.936 94.194 127.146 93.6153 127.566 93.186C127.995 92.7473 128.602 92.528 129.386 92.528C129.675 92.528 129.95 92.5653 130.212 92.64C130.482 92.7053 130.711 92.8126 130.898 92.962L130.492 93.984C130.352 93.872 130.193 93.788 130.016 93.732C129.838 93.6666 129.652 93.634 129.456 93.634C129.064 93.634 128.765 93.746 128.56 93.97C128.354 94.1846 128.252 94.5066 128.252 94.936L128.252 95.93L128.28 96.546L128.28 103L126.936 103ZM125.676 96.686L125.676 95.58L130.408 95.58L130.408 96.686L125.676 96.686ZM131.682 103L131.682 95.58L133.026 95.58L133.026 103L131.682 103ZM132.354 94.152C132.092 94.152 131.873 94.068 131.696 93.9C131.528 93.732 131.444 93.5266 131.444 93.284C131.444 93.032 131.528 92.822 131.696 92.654C131.873 92.486 132.092 92.402 132.354 92.402C132.615 92.402 132.83 92.486 132.998 92.654C133.175 92.8126 133.264 93.0133 133.264 93.256C133.264 93.508 133.18 93.7226 133.012 93.9C132.844 94.068 132.624 94.152 132.354 94.152ZM135.586 103L135.586 92.612L136.93 92.612L136.93 103L135.586 103ZM142.8 103.084C142.006 103.084 141.306 102.921 140.7 102.594C140.102 102.267 139.636 101.819 139.3 101.25C138.973 100.681 138.81 100.027 138.81 99.29C138.81 98.5526 138.968 97.8993 139.286 97.33C139.612 96.7606 140.056 96.3173 140.616 96C141.185 95.6733 141.824 95.51 142.534 95.51C143.252 95.51 143.887 95.6686 144.438 95.986C144.988 96.3033 145.418 96.7513 145.726 97.33C146.043 97.8993 146.202 98.5666 146.202 99.332C146.202 99.388 146.197 99.4533 146.188 99.528C146.188 99.6026 146.183 99.6726 146.174 99.738L139.86 99.738L139.86 98.772L145.474 98.772L144.928 99.108C144.937 98.632 144.839 98.2073 144.634 97.834C144.428 97.4606 144.144 97.1713 143.78 96.966C143.425 96.7513 143.01 96.644 142.534 96.644C142.067 96.644 141.652 96.7513 141.288 96.966C140.924 97.1713 140.639 97.4653 140.434 97.848C140.228 98.2213 140.126 98.6506 140.126 99.136L140.126 99.36C140.126 99.8546 140.238 100.298 140.462 100.69C140.695 101.073 141.017 101.371 141.428 101.586C141.838 101.801 142.31 101.908 142.842 101.908C143.28 101.908 143.677 101.833 144.032 101.684C144.396 101.535 144.713 101.311 144.984 101.012L145.726 101.88C145.39 102.272 144.97 102.571 144.466 102.776C143.971 102.981 143.416 103.084 142.8 103.084ZM150.196 103.084C149.58 103.084 148.992 103 148.432 102.832C147.881 102.664 147.447 102.459 147.13 102.216L147.69 101.152C148.007 101.367 148.399 101.549 148.866 101.698C149.333 101.847 149.809 101.922 150.294 101.922C150.919 101.922 151.367 101.833 151.638 101.656C151.918 101.479 152.058 101.231 152.058 100.914C152.058 100.681 151.974 100.499 151.806 100.368C151.638 100.237 151.414 100.139 151.134 100.074C150.863 100.009 150.56 99.9526 150.224 99.906C149.888 99.85 149.552 99.7846 149.216 99.71C148.88 99.626 148.572 99.514 148.292 99.374C148.012 99.2246 147.788 99.024 147.62 98.772C147.452 98.5106 147.368 98.1653 147.368 97.736C147.368 97.288 147.494 96.896 147.746 96.56C147.998 96.224 148.353 95.9673 148.81 95.79C149.277 95.6033 149.827 95.51 150.462 95.51C150.947 95.51 151.437 95.5706 151.932 95.692C152.436 95.804 152.847 95.9673 153.164 96.182L152.59 97.246C152.254 97.022 151.904 96.868 151.54 96.784C151.176 96.7 150.812 96.658 150.448 96.658C149.86 96.658 149.421 96.756 149.132 96.952C148.843 97.1386 148.698 97.3813 148.698 97.68C148.698 97.932 148.782 98.128 148.95 98.268C149.127 98.3986 149.351 98.5013 149.622 98.576C149.902 98.6506 150.21 98.716 150.546 98.772C150.882 98.8186 151.218 98.884 151.554 98.968C151.89 99.0426 152.193 99.15 152.464 99.29C152.744 99.43 152.968 99.626 153.136 99.878C153.313 100.13 153.402 100.466 153.402 100.886C153.402 101.334 153.271 101.721 153.01 102.048C152.749 102.375 152.38 102.631 151.904 102.818C151.428 102.995 150.859 103.084 150.196 103.084ZM8.65584 120L8.65584 112.58L9.94384 112.58L9.94384 114.596L9.81784 114.092C10.0232 113.579 10.3685 113.187 10.8538 112.916C11.3392 112.645 11.9365 112.51 12.6458 112.51L12.6458 113.812C12.5898 113.803 12.5338 113.798 12.4778 113.798C12.4312 113.798 12.3845 113.798 12.3378 113.798C11.6192 113.798 11.0498 114.013 10.6298 114.442C10.2098 114.871 9.99984 115.492 9.99984 116.304L9.99984 120L8.65584 120ZM17.538 120.084C16.7446 120.084 16.0446 119.921 15.438 119.594C14.8406 119.267 14.374 118.819 14.038 118.25C13.7113 117.681 13.548 117.027 13.548 116.29C13.548 115.553 13.7066 114.899 14.024 114.33C14.3506 113.761 14.794 113.317 15.354 113C15.9233 112.673 16.5626 112.51 17.272 112.51C17.9906 112.51 18.6253 112.669 19.176 112.986C19.7266 113.303 20.156 113.751 20.464 114.33C20.7813 114.899 20.94 115.567 20.94 116.332C20.94 116.388 20.9353 116.453 20.926 116.528C20.926 116.603 20.9213 116.673 20.912 116.738L14.598 116.738L14.598 115.772L20.212 115.772L19.666 116.108C19.6753 115.632 19.5773 115.207 19.372 114.834C19.1666 114.461 18.882 114.171 18.518 113.966C18.1633 113.751 17.748 113.644 17.272 113.644C16.8053 113.644 16.39 113.751 16.026 113.966C15.662 114.171 15.3773 114.465 15.172 114.848C14.9666 115.221 14.864 115.651 14.864 116.136L14.864 116.36C14.864 116.855 14.976 117.298 15.2 117.69C15.4333 118.073 15.7553 118.371 16.166 118.586C16.5766 118.801 17.048 118.908 17.58 118.908C18.0186 118.908 18.4153 118.833 18.77 118.684C19.134 118.535 19.4513 118.311 19.722 118.012L20.464 118.88C20.128 119.272 19.708 119.571 19.204 119.776C18.7093 119.981 18.154 120.084 17.538 120.084ZM26.0402 120.084C25.2842 120.084 24.6076 119.921 24.0102 119.594C23.4222 119.267 22.9602 118.819 22.6242 118.25C22.2882 117.681 22.1202 117.027 22.1202 116.29C22.1202 115.553 22.2882 114.899 22.6242 114.33C22.9602 113.761 23.4222 113.317 24.0102 113C24.6076 112.673 25.2842 112.51 26.0402 112.51C26.7122 112.51 27.3096 112.645 27.8322 112.916C28.3642 113.177 28.7749 113.569 29.0642 114.092L28.0422 114.75C27.7996 114.386 27.5009 114.12 27.1462 113.952C26.8009 113.775 26.4276 113.686 26.0262 113.686C25.5409 113.686 25.1069 113.793 24.7242 114.008C24.3416 114.223 24.0382 114.526 23.8142 114.918C23.5902 115.301 23.4782 115.758 23.4782 116.29C23.4782 116.822 23.5902 117.284 23.8142 117.676C24.0382 118.068 24.3416 118.371 24.7242 118.586C25.1069 118.801 25.5409 118.908 26.0262 118.908C26.4276 118.908 26.8009 118.824 27.1462 118.656C27.5009 118.479 27.7996 118.208 28.0422 117.844L29.0642 118.488C28.7749 119.001 28.3642 119.398 27.8322 119.678C27.3096 119.949 26.7122 120.084 26.0402 120.084ZM33.9989 120.084C33.2056 120.084 32.5056 119.921 31.8989 119.594C31.3016 119.267 30.8349 118.819 30.4989 118.25C30.1722 117.681 30.0089 117.027 30.0089 116.29C30.0089 115.553 30.1676 114.899 30.4849 114.33C30.8116 113.761 31.2549 113.317 31.8149 113C32.3842 112.673 33.0236 112.51 33.7329 112.51C34.4516 112.51 35.0862 112.669 35.6369 112.986C36.1876 113.303 36.6169 113.751 36.9249 114.33C37.2422 114.899 37.4009 115.567 37.4009 116.332C37.4009 116.388 37.3962 116.453 37.3869 116.528C37.3869 116.603 37.3822 116.673 37.3729 116.738L31.0589 116.738L31.0589 115.772L36.6729 115.772L36.1269 116.108C36.1362 115.632 36.0382 115.207 35.8329 114.834C35.6276 114.461 35.3429 114.171 34.9789 113.966C34.6242 113.751 34.2089 113.644 33.7329 113.644C33.2662 113.644 32.8509 113.751 32.4869 113.966C32.1229 114.171 31.8382 114.465 31.6329 114.848C31.4276 115.221 31.3249 115.651 31.3249 116.136L31.3249 116.36C31.3249 116.855 31.4369 117.298 31.6609 117.69C31.8942 118.073 32.2162 118.371 32.6269 118.586C33.0376 118.801 33.5089 118.908 34.0409 118.908C34.4796 118.908 34.8762 118.833 35.2309 118.684C35.5949 118.535 35.9122 118.311 36.1829 118.012L36.9249 118.88C36.5889 119.272 36.1689 119.571 35.6649 119.776C35.1702 119.981 34.6149 120.084 33.9989 120.084ZM39.2672 120L39.2672 112.58L40.6112 112.58L40.6112 120L39.2672 120ZM39.9392 111.152C39.6778 111.152 39.4585 111.068 39.2812 110.9C39.1132 110.732 39.0292 110.527 39.0292 110.284C39.0292 110.032 39.1132 109.822 39.2812 109.654C39.4585 109.486 39.6778 109.402 39.9392 109.402C40.2005 109.402 40.4152 109.486 40.5832 109.654C40.7605 109.813 40.8492 110.013 40.8492 110.256C40.8492 110.508 40.7652 110.723 40.5972 110.9C40.4292 111.068 40.2098 111.152 39.9392 111.152ZM45.1233 120L41.8753 112.58L43.2753 112.58L46.1593 119.3L45.4873 119.3L48.4273 112.58L49.7433 112.58L46.4953 120L45.1233 120ZM54.0966 120.084C53.3032 120.084 52.6032 119.921 51.9966 119.594C51.3992 119.267 50.9326 118.819 50.5966 118.25C50.2699 117.681 50.1066 117.027 50.1066 116.29C50.1066 115.553 50.2652 114.899 50.5826 114.33C50.9092 113.761 51.3526 113.317 51.9126 113C52.4819 112.673 53.1212 112.51 53.8306 112.51C54.5492 112.51 55.1839 112.669 55.7346 112.986C56.2852 113.303 56.7146 113.751 57.0226 114.33C57.3399 114.899 57.4986 115.567 57.4986 116.332C57.4986 116.388 57.4939 116.453 57.4846 116.528C57.4846 116.603 57.4799 116.673 57.4706 116.738L51.1566 116.738L51.1566 115.772L56.7706 115.772L56.2246 116.108C56.2339 115.632 56.1359 115.207 55.9306 114.834C55.7252 114.461 55.4406 114.171 55.0766 113.966C54.7219 113.751 54.3066 113.644 53.8306 113.644C53.3639 113.644 52.9486 113.751 52.5846 113.966C52.2206 114.171 51.9359 114.465 51.7306 114.848C51.5252 115.221 51.4226 115.651 51.4226 116.136L51.4226 116.36C51.4226 116.855 51.5346 117.298 51.7586 117.69C51.9919 118.073 52.3139 118.371 52.7246 118.586C53.1352 118.801 53.6066 118.908 54.1386 118.908C54.5772 118.908 54.9739 118.833 55.3286 118.684C55.6926 118.535 56.0099 118.311 56.2806 118.012L57.0226 118.88C56.6866 119.272 56.2666 119.571 55.7626 119.776C55.2679 119.981 54.7126 120.084 54.0966 120.084ZM62.4308 120.084C61.7122 120.084 61.0682 119.925 60.4988 119.608C59.9388 119.291 59.4955 118.847 59.1688 118.278C58.8422 117.709 58.6788 117.046 58.6788 116.29C58.6788 115.534 58.8422 114.876 59.1688 114.316C59.4955 113.747 59.9388 113.303 60.4988 112.986C61.0682 112.669 61.7122 112.51 62.4308 112.51C63.0562 112.51 63.6208 112.65 64.1248 112.93C64.6288 113.21 65.0302 113.63 65.3288 114.19C65.6368 114.75 65.7908 115.45 65.7908 116.29C65.7908 117.13 65.6415 117.83 65.3428 118.39C65.0535 118.95 64.6568 119.375 64.1528 119.664C63.6488 119.944 63.0748 120.084 62.4308 120.084ZM62.5428 118.908C63.0095 118.908 63.4295 118.801 63.8028 118.586C64.1855 118.371 64.4842 118.068 64.6988 117.676C64.9228 117.275 65.0348 116.813 65.0348 116.29C65.0348 115.758 64.9228 115.301 64.6988 114.918C64.4842 114.526 64.1855 114.223 63.8028 114.008C63.4295 113.793 63.0095 113.686 62.5428 113.686C62.0668 113.686 61.6422 113.793 61.2688 114.008C60.8955 114.223 60.5968 114.526 60.3728 114.918C60.1488 115.301 60.0368 115.758 60.0368 116.29C60.0368 116.813 60.1488 117.275 60.3728 117.676C60.5968 118.068 60.8955 118.371 61.2688 118.586C61.6422 118.801 62.0668 118.908 62.5428 118.908ZM65.0768 120L65.0768 117.998L65.1608 116.276L65.0208 114.554L65.0208 109.612L66.3648 109.612L66.3648 120L65.0768 120ZM69.2298 120.084C68.9685 120.084 68.7445 119.995 68.5578 119.818C68.3711 119.631 68.2778 119.398 68.2778 119.118C68.2778 118.838 68.3711 118.609 68.5578 118.432C68.7445 118.255 68.9685 118.166 69.2298 118.166C69.4818 118.166 69.6965 118.255 69.8738 118.432C70.0605 118.609 70.1538 118.838 70.1538 119.118C70.1538 119.398 70.0605 119.631 69.8738 119.818C69.6965 119.995 69.4818 120.084 69.2298 120.084ZM76.0354 120L76.0354 110.2L79.8574 110.2C80.7161 110.2 81.4488 110.335 82.0554 110.606C82.6621 110.877 83.1288 111.269 83.4554 111.782C83.7821 112.295 83.9454 112.907 83.9454 113.616C83.9454 114.325 83.7821 114.937 83.4554 115.45C83.1288 115.954 82.6621 116.346 82.0554 116.626C81.4488 116.897 80.7161 117.032 79.8574 117.032L76.8054 117.032L77.4354 116.374L77.4354 120L76.0354 120ZM77.4354 116.514L76.8054 115.814L79.8154 115.814C80.7114 115.814 81.3881 115.623 81.8454 115.24C82.3121 114.857 82.5454 114.316 82.5454 113.616C82.5454 112.916 82.3121 112.375 81.8454 111.992C81.3881 111.609 80.7114 111.418 79.8154 111.418L76.8054 111.418L77.4354 110.718L77.4354 116.514ZM85.9429 120L85.9429 109.612L87.2869 109.612L87.2869 120L85.9429 120ZM93.1571 120.084C92.3638 120.084 91.6638 119.921 91.0571 119.594C90.4598 119.267 89.9931 118.819 89.6571 118.25C89.3304 117.681 89.1671 117.027 89.1671 116.29C89.1671 115.553 89.3258 114.899 89.6431 114.33C89.9698 113.761 90.4131 113.317 90.9731 113C91.5424 112.673 92.1818 112.51 92.8911 112.51C93.6098 112.51 94.2444 112.669 94.7951 112.986C95.3458 113.303 95.7751 113.751 96.0831 114.33C96.4004 114.899 96.5591 115.567 96.5591 116.332C96.5591 116.388 96.5544 116.453 96.5451 116.528C96.5451 116.603 96.5404 116.673 96.5311 116.738L90.2171 116.738L90.2171 115.772L95.8311 115.772L95.2851 116.108C95.2944 115.632 95.1964 115.207 94.9911 114.834C94.7858 114.461 94.5011 114.171 94.1371 113.966C93.7824 113.751 93.3671 113.644 92.8911 113.644C92.4244 113.644 92.0091 113.751 91.6451 113.966C91.2811 114.171 90.9964 114.465 90.7911 114.848C90.5858 115.221 90.4831 115.651 90.4831 116.136L90.4831 116.36C90.4831 116.855 90.5951 117.298 90.8191 117.69C91.0524 118.073 91.3744 118.371 91.7851 118.586C92.1958 118.801 92.6671 118.908 93.1991 118.908C93.6378 118.908 94.0344 118.833 94.3891 118.684C94.7531 118.535 95.0704 118.311 95.3411 118.012L96.0831 118.88C95.7471 119.272 95.3271 119.571 94.8231 119.776C94.3284 119.981 93.7731 120.084 93.1571 120.084ZM102.826 120L102.826 118.432L102.756 118.138L102.756 115.464C102.756 114.895 102.588 114.456 102.252 114.148C101.926 113.831 101.431 113.672 100.768 113.672C100.33 113.672 99.9003 113.747 99.4803 113.896C99.0603 114.036 98.7056 114.227 98.4163 114.47L97.8563 113.462C98.239 113.154 98.6963 112.921 99.2283 112.762C99.7696 112.594 100.334 112.51 100.922 112.51C101.94 112.51 102.724 112.757 103.274 113.252C103.825 113.747 104.1 114.503 104.1 115.52L104.1 120L102.826 120ZM100.39 120.084C99.8396 120.084 99.3543 119.991 98.9343 119.804C98.5236 119.617 98.2063 119.361 97.9823 119.034C97.7583 118.698 97.6463 118.32 97.6463 117.9C97.6463 117.499 97.7396 117.135 97.9263 116.808C98.1223 116.481 98.435 116.22 98.8643 116.024C99.303 115.828 99.891 115.73 100.628 115.73L102.98 115.73L102.98 116.696L100.684 116.696C100.012 116.696 99.5596 116.808 99.3263 117.032C99.093 117.256 98.9763 117.527 98.9763 117.844C98.9763 118.208 99.121 118.502 99.4103 118.726C99.6996 118.941 100.101 119.048 100.614 119.048C101.118 119.048 101.557 118.936 101.93 118.712C102.313 118.488 102.588 118.161 102.756 117.732L103.022 118.656C102.845 119.095 102.532 119.445 102.084 119.706C101.636 119.958 101.072 120.084 100.39 120.084ZM108.715 120.084C108.099 120.084 107.511 120 106.951 119.832C106.401 119.664 105.967 119.459 105.649 119.216L106.209 118.152C106.527 118.367 106.919 118.549 107.385 118.698C107.852 118.847 108.328 118.922 108.813 118.922C109.439 118.922 109.887 118.833 110.157 118.656C110.437 118.479 110.577 118.231 110.577 117.914C110.577 117.681 110.493 117.499 110.325 117.368C110.157 117.237 109.933 117.139 109.653 117.074C109.383 117.009 109.079 116.953 108.743 116.906C108.407 116.85 108.071 116.785 107.735 116.71C107.399 116.626 107.091 116.514 106.811 116.374C106.531 116.225 106.307 116.024 106.139 115.772C105.971 115.511 105.887 115.165 105.887 114.736C105.887 114.288 106.013 113.896 106.265 113.56C106.517 113.224 106.872 112.967 107.329 112.79C107.796 112.603 108.347 112.51 108.981 112.51C109.467 112.51 109.957 112.571 110.451 112.692C110.955 112.804 111.366 112.967 111.683 113.182L111.109 114.246C110.773 114.022 110.423 113.868 110.059 113.784C109.695 113.7 109.331 113.658 108.967 113.658C108.379 113.658 107.941 113.756 107.651 113.952C107.362 114.139 107.217 114.381 107.217 114.68C107.217 114.932 107.301 115.128 107.469 115.268C107.647 115.399 107.871 115.501 108.141 115.576C108.421 115.651 108.729 115.716 109.065 115.772C109.401 115.819 109.737 115.884 110.073 115.968C110.409 116.043 110.713 116.15 110.983 116.29C111.263 116.43 111.487 116.626 111.655 116.878C111.833 117.13 111.921 117.466 111.921 117.886C111.921 118.334 111.791 118.721 111.529 119.048C111.268 119.375 110.899 119.631 110.423 119.818C109.947 119.995 109.378 120.084 108.715 120.084ZM116.905 120.084C116.112 120.084 115.412 119.921 114.805 119.594C114.208 119.267 113.741 118.819 113.405 118.25C113.078 117.681 112.915 117.027 112.915 116.29C112.915 115.553 113.074 114.899 113.391 114.33C113.718 113.761 114.161 113.317 114.721 113C115.29 112.673 115.93 112.51 116.639 112.51C117.358 112.51 117.992 112.669 118.543 112.986C119.094 113.303 119.523 113.751 119.831 114.33C120.148 114.899 120.307 115.567 120.307 116.332C120.307 116.388 120.302 116.453 120.293 116.528C120.293 116.603 120.288 116.673 120.279 116.738L113.965 116.738L113.965 115.772L119.579 115.772L119.033 116.108C119.042 115.632 118.944 115.207 118.739 114.834C118.534 114.461 118.249 114.171 117.885 113.966C117.53 113.751 117.115 113.644 116.639 113.644C116.172 113.644 115.757 113.751 115.393 113.966C115.029 114.171 114.744 114.465 114.539 114.848C114.334 115.221 114.231 115.651 114.231 116.136L114.231 116.36C114.231 116.855 114.343 117.298 114.567 117.69C114.8 118.073 115.122 118.371 115.533 118.586C115.944 118.801 116.415 118.908 116.947 118.908C117.386 118.908 117.782 118.833 118.137 118.684C118.501 118.535 118.818 118.311 119.089 118.012L119.831 118.88C119.495 119.272 119.075 119.571 118.571 119.776C118.076 119.981 117.521 120.084 116.905 120.084ZM128.061 120.084C127.445 120.084 126.857 120 126.297 119.832C125.747 119.664 125.313 119.459 124.995 119.216L125.555 118.152C125.873 118.367 126.265 118.549 126.731 118.698C127.198 118.847 127.674 118.922 128.159 118.922C128.785 118.922 129.233 118.833 129.503 118.656C129.783 118.479 129.923 118.231 129.923 117.914C129.923 117.681 129.839 117.499 129.671 117.368C129.503 117.237 129.279 117.139 128.999 117.074C128.729 117.009 128.425 116.953 128.089 116.906C127.753 116.85 127.417 116.785 127.081 116.71C126.745 116.626 126.437 116.514 126.157 116.374C125.877 116.225 125.653 116.024 125.485 115.772C125.317 115.511 125.233 115.165 125.233 114.736C125.233 114.288 125.359 113.896 125.611 113.56C125.863 113.224 126.218 112.967 126.675 112.79C127.142 112.603 127.693 112.51 128.327 112.51C128.813 112.51 129.303 112.571 129.797 112.692C130.301 112.804 130.712 112.967 131.029 113.182L130.455 114.246C130.119 114.022 129.769 113.868 129.405 113.784C129.041 113.7 128.677 113.658 128.313 113.658C127.725 113.658 127.287 113.756 126.997 113.952C126.708 114.139 126.563 114.381 126.563 114.68C126.563 114.932 126.647 115.128 126.815 115.268C126.993 115.399 127.217 115.501 127.487 115.576C127.767 115.651 128.075 115.716 128.411 115.772C128.747 115.819 129.083 115.884 129.419 115.968C129.755 116.043 130.059 116.15 130.329 116.29C130.609 116.43 130.833 116.626 131.001 116.878C131.179 117.13 131.267 117.466 131.267 117.886C131.267 118.334 131.137 118.721 130.875 119.048C130.614 119.375 130.245 119.631 129.769 119.818C129.293 119.995 128.724 120.084 128.061 120.084ZM136.251 120.084C135.458 120.084 134.758 119.921 134.151 119.594C133.554 119.267 133.087 118.819 132.751 118.25C132.424 117.681 132.261 117.027 132.261 116.29C132.261 115.553 132.42 114.899 132.737 114.33C133.064 113.761 133.507 113.317 134.067 113C134.636 112.673 135.276 112.51 135.985 112.51C136.704 112.51 137.338 112.669 137.889 112.986C138.44 113.303 138.869 113.751 139.177 114.33C139.494 114.899 139.653 115.567 139.653 116.332C139.653 116.388 139.648 116.453 139.639 116.528C139.639 116.603 139.634 116.673 139.625 116.738L133.311 116.738L133.311 115.772L138.925 115.772L138.379 116.108C138.388 115.632 138.29 115.207 138.085 114.834C137.88 114.461 137.595 114.171 137.231 113.966C136.876 113.751 136.461 113.644 135.985 113.644C135.518 113.644 135.103 113.751 134.739 113.966C134.375 114.171 134.09 114.465 133.885 114.848C133.68 115.221 133.577 115.651 133.577 116.136L133.577 116.36C133.577 116.855 133.689 117.298 133.913 117.69C134.146 118.073 134.468 118.371 134.879 118.586C135.29 118.801 135.761 118.908 136.293 118.908C136.732 118.908 137.128 118.833 137.483 118.684C137.847 118.535 138.164 118.311 138.435 118.012L139.177 118.88C138.841 119.272 138.421 119.571 137.917 119.776C137.422 119.981 136.867 120.084 136.251 120.084ZM141.519 120L141.519 109.612L142.863 109.612L142.863 120L141.519 120ZM148.733 120.084C147.94 120.084 147.24 119.921 146.633 119.594C146.036 119.267 145.569 118.819 145.233 118.25C144.907 117.681 144.743 117.027 144.743 116.29C144.743 115.553 144.902 114.899 145.219 114.33C145.546 113.761 145.989 113.317 146.549 113C147.119 112.673 147.758 112.51 148.467 112.51C149.186 112.51 149.821 112.669 150.371 112.986C150.922 113.303 151.351 113.751 151.659 114.33C151.977 114.899 152.135 115.567 152.135 116.332C152.135 116.388 152.131 116.453 152.121 116.528C152.121 116.603 152.117 116.673 152.107 116.738L145.793 116.738L145.793 115.772L151.407 115.772L150.861 116.108C150.871 115.632 150.773 115.207 150.567 114.834C150.362 114.461 150.077 114.171 149.713 113.966C149.359 113.751 148.943 113.644 148.467 113.644C148.001 113.644 147.585 113.751 147.221 113.966C146.857 114.171 146.573 114.465 146.367 114.848C146.162 115.221 146.059 115.651 146.059 116.136L146.059 116.36C146.059 116.855 146.171 117.298 146.395 117.69C146.629 118.073 146.951 118.371 147.361 118.586C147.772 118.801 148.243 118.908 148.775 118.908C149.214 118.908 149.611 118.833 149.965 118.684C150.329 118.535 150.647 118.311 150.917 118.012L151.659 118.88C151.323 119.272 150.903 119.571 150.399 119.776C149.905 119.981 149.349 120.084 148.733 120.084ZM157.236 120.084C156.48 120.084 155.803 119.921 155.206 119.594C154.618 119.267 154.156 118.819 153.82 118.25C153.484 117.681 153.316 117.027 153.316 116.29C153.316 115.553 153.484 114.899 153.82 114.33C154.156 113.761 154.618 113.317 155.206 113C155.803 112.673 156.48 112.51 157.236 112.51C157.908 112.51 158.505 112.645 159.028 112.916C159.56 113.177 159.97 113.569 160.26 114.092L159.238 114.75C158.995 114.386 158.696 114.12 158.342 113.952C157.996 113.775 157.623 113.686 157.222 113.686C156.736 113.686 156.302 113.793 155.92 114.008C155.537 114.223 155.234 114.526 155.01 114.918C154.786 115.301 154.674 115.758 154.674 116.29C154.674 116.822 154.786 117.284 155.01 117.676C155.234 118.068 155.537 118.371 155.92 118.586C156.302 118.801 156.736 118.908 157.222 118.908C157.623 118.908 157.996 118.824 158.342 118.656C158.696 118.479 158.995 118.208 159.238 117.844L160.26 118.488C159.97 119.001 159.56 119.398 159.028 119.678C158.505 119.949 157.908 120.084 157.236 120.084ZM164.643 120.084C163.897 120.084 163.318 119.883 162.907 119.482C162.497 119.081 162.291 118.507 162.291 117.76L162.291 110.956L163.635 110.956L163.635 117.704C163.635 118.105 163.733 118.413 163.929 118.628C164.135 118.843 164.424 118.95 164.797 118.95C165.217 118.95 165.567 118.833 165.847 118.6L166.267 119.566C166.062 119.743 165.815 119.874 165.525 119.958C165.245 120.042 164.951 120.084 164.643 120.084ZM161.031 113.686L161.031 112.58L165.763 112.58L165.763 113.686L161.031 113.686ZM12.384 137L9.62599 129.58L10.9 129.58L13.35 136.3L12.748 136.3L15.296 129.58L16.43 129.58L18.922 136.3L18.334 136.3L20.84 129.58L22.044 129.58L19.272 137L17.984 137L15.646 130.868L16.038 130.868L13.672 137L12.384 137ZM27.3698 129.51C27.9765 129.51 28.5085 129.627 28.9658 129.86C29.4325 130.093 29.7965 130.448 30.0578 130.924C30.3191 131.4 30.4498 132.002 30.4498 132.73L30.4498 137L29.1058 137L29.1058 132.884C29.1058 132.165 28.9285 131.624 28.5738 131.26C28.2285 130.896 27.7385 130.714 27.1038 130.714C26.6278 130.714 26.2125 130.807 25.8578 130.994C25.5031 131.181 25.2278 131.456 25.0318 131.82C24.8451 132.184 24.7518 132.637 24.7518 133.178L24.7518 137L23.4078 137L23.4078 126.612L24.7518 126.612L24.7518 131.582L24.4858 131.05C24.7285 130.565 25.1018 130.187 25.6058 129.916C26.1098 129.645 26.6978 129.51 27.3698 129.51ZM32.9371 137L32.9371 129.58L34.2811 129.58L34.2811 137L32.9371 137ZM33.6091 128.152C33.3478 128.152 33.1284 128.068 32.9511 127.9C32.7831 127.732 32.6991 127.527 32.6991 127.284C32.6991 127.032 32.7831 126.822 32.9511 126.654C33.1284 126.486 33.3478 126.402 33.6091 126.402C33.8704 126.402 34.0851 126.486 34.2531 126.654C34.4304 126.813 34.5191 127.013 34.5191 127.256C34.5191 127.508 34.4351 127.723 34.2671 127.9C34.0991 128.068 33.8798 128.152 33.6091 128.152ZM40.0812 137.084C39.3252 137.084 38.6486 136.921 38.0512 136.594C37.4632 136.267 37.0012 135.819 36.6652 135.25C36.3292 134.681 36.1612 134.027 36.1612 133.29C36.1612 132.553 36.3292 131.899 36.6652 131.33C37.0012 130.761 37.4632 130.317 38.0512 130C38.6486 129.673 39.3252 129.51 40.0812 129.51C40.7532 129.51 41.3506 129.645 41.8732 129.916C42.4052 130.177 42.8159 130.569 43.1052 131.092L42.0832 131.75C41.8406 131.386 41.5419 131.12 41.1872 130.952C40.8419 130.775 40.4686 130.686 40.0672 130.686C39.5819 130.686 39.1479 130.793 38.7652 131.008C38.3826 131.223 38.0792 131.526 37.8552 131.918C37.6312 132.301 37.5192 132.758 37.5192 133.29C37.5192 133.822 37.6312 134.284 37.8552 134.676C38.0792 135.068 38.3826 135.371 38.7652 135.586C39.1479 135.801 39.5819 135.908 40.0672 135.908C40.4686 135.908 40.8419 135.824 41.1872 135.656C41.5419 135.479 41.8406 135.208 42.0832 134.844L43.1052 135.488C42.8159 136.001 42.4052 136.398 41.8732 136.678C41.3506 136.949 40.7532 137.084 40.0812 137.084ZM48.7116 129.51C49.3183 129.51 49.8503 129.627 50.3076 129.86C50.7743 130.093 51.1383 130.448 51.3996 130.924C51.6609 131.4 51.7916 132.002 51.7916 132.73L51.7916 137L50.4476 137L50.4476 132.884C50.4476 132.165 50.2703 131.624 49.9156 131.26C49.5703 130.896 49.0803 130.714 48.4456 130.714C47.9696 130.714 47.5543 130.807 47.1996 130.994C46.8449 131.181 46.5696 131.456 46.3736 131.82C46.1869 132.184 46.0936 132.637 46.0936 133.178L46.0936 137L44.7496 137L44.7496 126.612L46.0936 126.612L46.0936 131.582L45.8276 131.05C46.0703 130.565 46.4436 130.187 46.9476 129.916C47.4516 129.645 48.0396 129.51 48.7116 129.51ZM61.1046 137.084C60.386 137.084 59.742 136.925 59.1726 136.608C58.6126 136.291 58.1693 135.847 57.8426 135.278C57.516 134.709 57.3526 134.046 57.3526 133.29C57.3526 132.534 57.516 131.876 57.8426 131.316C58.1693 130.747 58.6126 130.303 59.1726 129.986C59.742 129.669 60.386 129.51 61.1046 129.51C61.7486 129.51 62.3226 129.65 62.8266 129.93C63.3306 130.21 63.7273 130.63 64.0166 131.19C64.3153 131.75 64.4646 132.45 64.4646 133.29C64.4646 134.13 64.3106 134.83 64.0026 135.39C63.704 135.95 63.3026 136.375 62.7986 136.664C62.2946 136.944 61.73 137.084 61.1046 137.084ZM61.2166 135.908C61.6833 135.908 62.1033 135.801 62.4766 135.586C62.8593 135.371 63.158 135.068 63.3726 134.676C63.5966 134.275 63.7086 133.813 63.7086 133.29C63.7086 132.758 63.5966 132.301 63.3726 131.918C63.158 131.526 62.8593 131.223 62.4766 131.008C62.1033 130.793 61.6833 130.686 61.2166 130.686C60.7406 130.686 60.316 130.793 59.9426 131.008C59.5693 131.223 59.2706 131.526 59.0466 131.918C58.8226 132.301 58.7106 132.758 58.7106 133.29C58.7106 133.813 58.8226 134.275 59.0466 134.676C59.2706 135.068 59.5693 135.371 59.9426 135.586C60.316 135.801 60.7406 135.908 61.2166 135.908ZM63.6946 139.716L63.6946 135.026L63.8346 133.304L63.7506 131.582L63.7506 129.58L65.0386 129.58L65.0386 139.716L63.6946 139.716ZM70.7036 137.084C70.069 137.084 69.509 136.967 69.0236 136.734C68.5476 136.501 68.1743 136.146 67.9036 135.67C67.6423 135.185 67.5116 134.578 67.5116 133.85L67.5116 129.58L68.8556 129.58L68.8556 133.696C68.8556 134.424 69.0283 134.97 69.3736 135.334C69.7283 135.698 70.223 135.88 70.8576 135.88C71.3243 135.88 71.7303 135.787 72.0756 135.6C72.421 135.404 72.687 135.124 72.8736 134.76C73.0603 134.387 73.1536 133.939 73.1536 133.416L73.1536 129.58L74.4976 129.58L74.4976 137L73.2236 137L73.2236 134.998L73.4336 135.53C73.191 136.025 72.827 136.407 72.3416 136.678C71.8563 136.949 71.3103 137.084 70.7036 137.084ZM80.3602 137.084C79.5669 137.084 78.8669 136.921 78.2602 136.594C77.6629 136.267 77.1962 135.819 76.8602 135.25C76.5336 134.681 76.3702 134.027 76.3702 133.29C76.3702 132.553 76.5289 131.899 76.8462 131.33C77.1729 130.761 77.6162 130.317 78.1762 130C78.7456 129.673 79.3849 129.51 80.0942 129.51C80.8129 129.51 81.4476 129.669 81.9982 129.986C82.5489 130.303 82.9782 130.751 83.2862 131.33C83.6036 131.899 83.7622 132.567 83.7622 133.332C83.7622 133.388 83.7576 133.453 83.7482 133.528C83.7482 133.603 83.7436 133.673 83.7342 133.738L77.4202 133.738L77.4202 132.772L83.0342 132.772L82.4882 133.108C82.4976 132.632 82.3996 132.207 82.1942 131.834C81.9889 131.461 81.7042 131.171 81.3402 130.966C80.9856 130.751 80.5702 130.644 80.0942 130.644C79.6276 130.644 79.2122 130.751 78.8482 130.966C78.4842 131.171 78.1996 131.465 77.9942 131.848C77.7889 132.221 77.6862 132.651 77.6862 133.136L77.6862 133.36C77.6862 133.855 77.7982 134.298 78.0222 134.69C78.2556 135.073 78.5776 135.371 78.9882 135.586C79.3989 135.801 79.8702 135.908 80.4022 135.908C80.8409 135.908 81.2376 135.833 81.5922 135.684C81.9562 135.535 82.2736 135.311 82.5442 135.012L83.2862 135.88C82.9502 136.272 82.5302 136.571 82.0262 136.776C81.5316 136.981 80.9762 137.084 80.3602 137.084ZM87.7565 137.084C87.1405 137.084 86.5525 137 85.9925 136.832C85.4418 136.664 85.0078 136.459 84.6905 136.216L85.2505 135.152C85.5678 135.367 85.9598 135.549 86.4265 135.698C86.8932 135.847 87.3692 135.922 87.8545 135.922C88.4798 135.922 88.9278 135.833 89.1985 135.656C89.4785 135.479 89.6185 135.231 89.6185 134.914C89.6185 134.681 89.5345 134.499 89.3665 134.368C89.1985 134.237 88.9745 134.139 88.6945 134.074C88.4238 134.009 88.1205 133.953 87.7845 133.906C87.4485 133.85 87.1125 133.785 86.7765 133.71C86.4405 133.626 86.1325 133.514 85.8525 133.374C85.5725 133.225 85.3485 133.024 85.1805 132.772C85.0125 132.511 84.9285 132.165 84.9285 131.736C84.9285 131.288 85.0545 130.896 85.3065 130.56C85.5585 130.224 85.9132 129.967 86.3705 129.79C86.8372 129.603 87.3878 129.51 88.0225 129.51C88.5078 129.51 88.9978 129.571 89.4925 129.692C89.9965 129.804 90.4072 129.967 90.7245 130.182L90.1505 131.246C89.8145 131.022 89.4645 130.868 89.1005 130.784C88.7365 130.7 88.3725 130.658 88.0085 130.658C87.4205 130.658 86.9818 130.756 86.6925 130.952C86.4032 131.139 86.2585 131.381 86.2585 131.68C86.2585 131.932 86.3425 132.128 86.5105 132.268C86.6878 132.399 86.9118 132.501 87.1825 132.576C87.4625 132.651 87.7705 132.716 88.1065 132.772C88.4425 132.819 88.7785 132.884 89.1145 132.968C89.4505 133.043 89.7538 133.15 90.0245 133.29C90.3045 133.43 90.5285 133.626 90.6965 133.878C90.8738 134.13 90.9625 134.466 90.9625 134.886C90.9625 135.334 90.8318 135.721 90.5705 136.048C90.3092 136.375 89.9405 136.631 89.4645 136.818C88.9885 136.995 88.4192 137.084 87.7565 137.084ZM95.1902 137.084C94.4435 137.084 93.8648 136.883 93.4542 136.482C93.0435 136.081 92.8382 135.507 92.8382 134.76L92.8382 127.956L94.1822 127.956L94.1822 134.704C94.1822 135.105 94.2802 135.413 94.4762 135.628C94.6815 135.843 94.9708 135.95 95.3442 135.95C95.7642 135.95 96.1142 135.833 96.3942 135.6L96.8142 136.566C96.6088 136.743 96.3615 136.874 96.0722 136.958C95.7922 137.042 95.4982 137.084 95.1902 137.084ZM91.5782 130.686L91.5782 129.58L96.3102 129.58L96.3102 130.686L91.5782 130.686ZM98.439 137L98.439 129.58L99.783 129.58L99.783 137L98.439 137ZM99.111 128.152C98.8497 128.152 98.6304 128.068 98.453 127.9C98.285 127.732 98.201 127.527 98.201 127.284C98.201 127.032 98.285 126.822 98.453 126.654C98.6304 126.486 98.8497 126.402 99.111 126.402C99.3724 126.402 99.587 126.486 99.755 126.654C99.9324 126.813 100.021 127.013 100.021 127.256C100.021 127.508 99.937 127.723 99.769 127.9C99.601 128.068 99.3817 128.152 99.111 128.152ZM105.527 137.084C104.781 137.084 104.118 136.921 103.539 136.594C102.961 136.267 102.503 135.819 102.167 135.25C101.831 134.671 101.663 134.018 101.663 133.29C101.663 132.553 101.831 131.899 102.167 131.33C102.503 130.761 102.961 130.317 103.539 130C104.118 129.673 104.781 129.51 105.527 129.51C106.265 129.51 106.923 129.673 107.501 130C108.089 130.317 108.547 130.761 108.873 131.33C109.209 131.89 109.377 132.543 109.377 133.29C109.377 134.027 109.209 134.681 108.873 135.25C108.547 135.819 108.089 136.267 107.501 136.594C106.923 136.921 106.265 137.084 105.527 137.084ZM105.527 135.908C106.003 135.908 106.428 135.801 106.801 135.586C107.184 135.371 107.483 135.068 107.697 134.676C107.912 134.275 108.019 133.813 108.019 133.29C108.019 132.758 107.912 132.301 107.697 131.918C107.483 131.526 107.184 131.223 106.801 131.008C106.428 130.793 106.003 130.686 105.527 130.686C105.051 130.686 104.627 130.793 104.253 131.008C103.88 131.223 103.581 131.526 103.357 131.918C103.133 132.301 103.021 132.758 103.021 133.29C103.021 133.813 103.133 134.275 103.357 134.676C103.581 135.068 103.88 135.371 104.253 135.586C104.627 135.801 105.051 135.908 105.527 135.908ZM115.198 129.51C115.805 129.51 116.337 129.627 116.794 129.86C117.261 130.093 117.625 130.448 117.886 130.924C118.147 131.4 118.278 132.002 118.278 132.73L118.278 137L116.934 137L116.934 132.884C116.934 132.165 116.757 131.624 116.402 131.26C116.057 130.896 115.567 130.714 114.932 130.714C114.456 130.714 114.041 130.807 113.686 130.994C113.331 131.181 113.056 131.456 112.86 131.82C112.673 132.184 112.58 132.637 112.58 133.178L112.58 137L111.236 137L111.236 129.58L112.524 129.58L112.524 131.582L112.314 131.05C112.557 130.565 112.93 130.187 113.434 129.916C113.938 129.645 114.526 129.51 115.198 129.51ZM122.893 137.084C122.277 137.084 121.689 137 121.129 136.832C120.579 136.664 120.145 136.459 119.827 136.216L120.387 135.152C120.705 135.367 121.097 135.549 121.563 135.698C122.03 135.847 122.506 135.922 122.991 135.922C123.617 135.922 124.065 135.833 124.335 135.656C124.615 135.479 124.755 135.231 124.755 134.914C124.755 134.681 124.671 134.499 124.503 134.368C124.335 134.237 124.111 134.139 123.831 134.074C123.561 134.009 123.257 133.953 122.921 133.906C122.585 133.85 122.249 133.785 121.913 133.71C121.577 133.626 121.269 133.514 120.989 133.374C120.709 133.225 120.485 133.024 120.317 132.772C120.149 132.511 120.065 132.165 120.065 131.736C120.065 131.288 120.191 130.896 120.443 130.56C120.695 130.224 121.05 129.967 121.507 129.79C121.974 129.603 122.525 129.51 123.159 129.51C123.645 129.51 124.135 129.571 124.629 129.692C125.133 129.804 125.544 129.967 125.861 130.182L125.287 131.246C124.951 131.022 124.601 130.868 124.237 130.784C123.873 130.7 123.509 130.658 123.145 130.658C122.557 130.658 122.119 130.756 121.829 130.952C121.54 131.139 121.395 131.381 121.395 131.68C121.395 131.932 121.479 132.128 121.647 132.268C121.825 132.399 122.049 132.501 122.319 132.576C122.599 132.651 122.907 132.716 123.243 132.772C123.579 132.819 123.915 132.884 124.251 132.968C124.587 133.043 124.891 133.15 125.161 133.29C125.441 133.43 125.665 133.626 125.833 133.878C126.011 134.13 126.099 134.466 126.099 134.886C126.099 135.334 125.969 135.721 125.707 136.048C125.446 136.375 125.077 136.631 124.601 136.818C124.125 136.995 123.556 137.084 122.893 137.084ZM131.735 137L131.735 128.922C131.735 128.194 131.945 127.615 132.365 127.186C132.794 126.747 133.401 126.528 134.185 126.528C134.474 126.528 134.749 126.565 135.011 126.64C135.281 126.705 135.51 126.813 135.697 126.962L135.291 127.984C135.151 127.872 134.992 127.788 134.815 127.732C134.637 127.667 134.451 127.634 134.255 127.634C133.863 127.634 133.564 127.746 133.359 127.97C133.153 128.185 133.051 128.507 133.051 128.936L133.051 129.93L133.079 130.546L133.079 137L131.735 137ZM130.475 130.686L130.475 129.58L135.207 129.58L135.207 130.686L130.475 130.686ZM136.474 137L136.474 129.58L137.762 129.58L137.762 131.596L137.636 131.092C137.842 130.579 138.187 130.187 138.672 129.916C139.158 129.645 139.755 129.51 140.464 129.51L140.464 130.812C140.408 130.803 140.352 130.798 140.296 130.798C140.25 130.798 140.203 130.798 140.156 130.798C139.438 130.798 138.868 131.013 138.448 131.442C138.028 131.871 137.818 132.492 137.818 133.304L137.818 137L136.474 137ZM145.23 137.084C144.484 137.084 143.821 136.921 143.242 136.594C142.664 136.267 142.206 135.819 141.87 135.25C141.534 134.671 141.366 134.018 141.366 133.29C141.366 132.553 141.534 131.899 141.87 131.33C142.206 130.761 142.664 130.317 143.242 130C143.821 129.673 144.484 129.51 145.23 129.51C145.968 129.51 146.626 129.673 147.204 130C147.792 130.317 148.25 130.761 148.576 131.33C148.912 131.89 149.08 132.543 149.08 133.29C149.08 134.027 148.912 134.681 148.576 135.25C148.25 135.819 147.792 136.267 147.204 136.594C146.626 136.921 145.968 137.084 145.23 137.084ZM145.23 135.908C145.706 135.908 146.131 135.801 146.504 135.586C146.887 135.371 147.186 135.068 147.4 134.676C147.615 134.275 147.722 133.813 147.722 133.29C147.722 132.758 147.615 132.301 147.4 131.918C147.186 131.526 146.887 131.223 146.504 131.008C146.131 130.793 145.706 130.686 145.23 130.686C144.754 130.686 144.33 130.793 143.956 131.008C143.583 131.223 143.284 131.526 143.06 131.918C142.836 132.301 142.724 132.758 142.724 133.29C142.724 133.813 142.836 134.275 143.06 134.676C143.284 135.068 143.583 135.371 143.956 135.586C144.33 135.801 144.754 135.908 145.23 135.908ZM160.221 129.51C160.818 129.51 161.346 129.627 161.803 129.86C162.26 130.093 162.615 130.448 162.867 130.924C163.128 131.4 163.259 132.002 163.259 132.73L163.259 137L161.915 137L161.915 132.884C161.915 132.165 161.747 131.624 161.411 131.26C161.075 130.896 160.604 130.714 159.997 130.714C159.549 130.714 159.157 130.807 158.821 130.994C158.485 131.181 158.224 131.456 158.037 131.82C157.86 132.184 157.771 132.637 157.771 133.178L157.771 137L156.427 137L156.427 132.884C156.427 132.165 156.259 131.624 155.923 131.26C155.596 130.896 155.125 130.714 154.509 130.714C154.07 130.714 153.683 130.807 153.347 130.994C153.011 131.181 152.75 131.456 152.563 131.82C152.376 132.184 152.283 132.637 152.283 133.178L152.283 137L150.939 137L150.939 129.58L152.227 129.58L152.227 131.554L152.017 131.05C152.25 130.565 152.61 130.187 153.095 129.916C153.58 129.645 154.145 129.51 154.789 129.51C155.498 129.51 156.11 129.687 156.623 130.042C157.136 130.387 157.472 130.915 157.631 131.624L157.085 131.4C157.309 130.831 157.701 130.373 158.261 130.028C158.821 129.683 159.474 129.51 160.221 129.51ZM10.6132 154.084C9.81982 154.084 9.11982 153.921 8.51316 153.594C7.91582 153.267 7.44916 152.819 7.11316 152.25C6.78649 151.681 6.62316 151.027 6.62316 150.29C6.62316 149.553 6.78182 148.899 7.09916 148.33C7.42582 147.761 7.86916 147.317 8.42916 147C8.99849 146.673 9.63782 146.51 10.3472 146.51C11.0658 146.51 11.7005 146.669 12.2512 146.986C12.8018 147.303 13.2312 147.751 13.5392 148.33C13.8565 148.899 14.0152 149.567 14.0152 150.332C14.0152 150.388 14.0105 150.453 14.0012 150.528C14.0012 150.603 13.9965 150.673 13.9872 150.738L7.67316 150.738L7.67316 149.772L13.2872 149.772L12.7412 150.108C12.7505 149.632 12.6525 149.207 12.4472 148.834C12.2418 148.461 11.9572 148.171 11.5932 147.966C11.2385 147.751 10.8232 147.644 10.3472 147.644C9.88049 147.644 9.46516 147.751 9.10116 147.966C8.73716 148.171 8.45249 148.465 8.24716 148.848C8.04182 149.221 7.93916 149.651 7.93916 150.136L7.93916 150.36C7.93916 150.855 8.05116 151.298 8.27516 151.69C8.50849 152.073 8.83049 152.371 9.24116 152.586C9.65182 152.801 10.1232 152.908 10.6552 152.908C11.0938 152.908 11.4905 152.833 11.8452 152.684C12.2092 152.535 12.5265 152.311 12.7972 152.012L13.5392 152.88C13.2032 153.272 12.7832 153.571 12.2792 153.776C11.7845 153.981 11.2292 154.084 10.6132 154.084ZM20.2823 154L20.2823 152.432L20.2123 152.138L20.2123 149.464C20.2123 148.895 20.0443 148.456 19.7083 148.148C19.3817 147.831 18.887 147.672 18.2243 147.672C17.7857 147.672 17.3563 147.747 16.9363 147.896C16.5163 148.036 16.1617 148.227 15.8723 148.47L15.3123 147.462C15.695 147.154 16.1523 146.921 16.6843 146.762C17.2257 146.594 17.7903 146.51 18.3783 146.51C19.3957 146.51 20.1797 146.757 20.7303 147.252C21.281 147.747 21.5563 148.503 21.5563 149.52L21.5563 154L20.2823 154ZM17.8463 154.084C17.2957 154.084 16.8103 153.991 16.3903 153.804C15.9797 153.617 15.6623 153.361 15.4383 153.034C15.2143 152.698 15.1023 152.32 15.1023 151.9C15.1023 151.499 15.1957 151.135 15.3823 150.808C15.5783 150.481 15.891 150.22 16.3203 150.024C16.759 149.828 17.347 149.73 18.0843 149.73L20.4363 149.73L20.4363 150.696L18.1403 150.696C17.4683 150.696 17.0157 150.808 16.7823 151.032C16.549 151.256 16.4323 151.527 16.4323 151.844C16.4323 152.208 16.577 152.502 16.8663 152.726C17.1557 152.941 17.557 153.048 18.0703 153.048C18.5743 153.048 19.013 152.936 19.3863 152.712C19.769 152.488 20.0443 152.161 20.2123 151.732L20.4783 152.656C20.301 153.095 19.9883 153.445 19.5403 153.706C19.0923 153.958 18.5277 154.084 17.8463 154.084ZM27.2775 154.084C26.5215 154.084 25.8449 153.921 25.2475 153.594C24.6595 153.267 24.1975 152.819 23.8615 152.25C23.5255 151.681 23.3575 151.027 23.3575 150.29C23.3575 149.553 23.5255 148.899 23.8615 148.33C24.1975 147.761 24.6595 147.317 25.2475 147C25.8449 146.673 26.5215 146.51 27.2775 146.51C27.9495 146.51 28.5469 146.645 29.0695 146.916C29.6015 147.177 30.0122 147.569 30.3015 148.092L29.2795 148.75C29.0369 148.386 28.7382 148.12 28.3835 147.952C28.0382 147.775 27.6649 147.686 27.2635 147.686C26.7782 147.686 26.3442 147.793 25.9615 148.008C25.5789 148.223 25.2755 148.526 25.0515 148.918C24.8275 149.301 24.7155 149.758 24.7155 150.29C24.7155 150.822 24.8275 151.284 25.0515 151.676C25.2755 152.068 25.5789 152.371 25.9615 152.586C26.3442 152.801 26.7782 152.908 27.2635 152.908C27.6649 152.908 28.0382 152.824 28.3835 152.656C28.7382 152.479 29.0369 152.208 29.2795 151.844L30.3015 152.488C30.0122 153.001 29.6015 153.398 29.0695 153.678C28.5469 153.949 27.9495 154.084 27.2775 154.084ZM35.9079 146.51C36.5145 146.51 37.0465 146.627 37.5039 146.86C37.9705 147.093 38.3345 147.448 38.5959 147.924C38.8572 148.4 38.9879 149.002 38.9879 149.73L38.9879 154L37.6439 154L37.6439 149.884C37.6439 149.165 37.4665 148.624 37.1119 148.26C36.7665 147.896 36.2765 147.714 35.6419 147.714C35.1659 147.714 34.7505 147.807 34.3959 147.994C34.0412 148.181 33.7659 148.456 33.5699 148.82C33.3832 149.184 33.2899 149.637 33.2899 150.178L33.2899 154L31.9459 154L31.9459 143.612L33.2899 143.612L33.2899 148.582L33.0239 148.05C33.2665 147.565 33.6399 147.187 34.1439 146.916C34.6479 146.645 35.2359 146.51 35.9079 146.51ZM47.3629 154.084C46.7469 154.084 46.1589 154 45.5989 153.832C45.0483 153.664 44.6143 153.459 44.2969 153.216L44.8569 152.152C45.1743 152.367 45.5663 152.549 46.0329 152.698C46.4996 152.847 46.9756 152.922 47.4609 152.922C48.0863 152.922 48.5343 152.833 48.8049 152.656C49.0849 152.479 49.2249 152.231 49.2249 151.914C49.2249 151.681 49.1409 151.499 48.9729 151.368C48.8049 151.237 48.5809 151.139 48.3009 151.074C48.0303 151.009 47.7269 150.953 47.3909 150.906C47.0549 150.85 46.7189 150.785 46.3829 150.71C46.0469 150.626 45.7389 150.514 45.4589 150.374C45.1789 150.225 44.9549 150.024 44.7869 149.772C44.6189 149.511 44.5349 149.165 44.5349 148.736C44.5349 148.288 44.6609 147.896 44.9129 147.56C45.1649 147.224 45.5196 146.967 45.9769 146.79C46.4436 146.603 46.9943 146.51 47.6289 146.51C48.1143 146.51 48.6043 146.571 49.0989 146.692C49.6029 146.804 50.0136 146.967 50.3309 147.182L49.7569 148.246C49.4209 148.022 49.0709 147.868 48.7069 147.784C48.3429 147.7 47.9789 147.658 47.6149 147.658C47.0269 147.658 46.5883 147.756 46.2989 147.952C46.0096 148.139 45.8649 148.381 45.8649 148.68C45.8649 148.932 45.9489 149.128 46.1169 149.268C46.2943 149.399 46.5183 149.501 46.7889 149.576C47.0689 149.651 47.3769 149.716 47.7129 149.772C48.0489 149.819 48.3849 149.884 48.7209 149.968C49.0569 150.043 49.3603 150.15 49.6309 150.29C49.9109 150.43 50.1349 150.626 50.3029 150.878C50.4803 151.13 50.5689 151.466 50.5689 151.886C50.5689 152.334 50.4383 152.721 50.1769 153.048C49.9156 153.375 49.5469 153.631 49.0709 153.818C48.5949 153.995 48.0256 154.084 47.3629 154.084ZM55.3706 154.084C54.7359 154.084 54.1759 153.967 53.6906 153.734C53.2146 153.501 52.8413 153.146 52.5706 152.67C52.3093 152.185 52.1786 151.578 52.1786 150.85L52.1786 146.58L53.5226 146.58L53.5226 150.696C53.5226 151.424 53.6953 151.97 54.0406 152.334C54.3953 152.698 54.8899 152.88 55.5246 152.88C55.9913 152.88 56.3973 152.787 56.7426 152.6C57.0879 152.404 57.3539 152.124 57.5406 151.76C57.7273 151.387 57.8206 150.939 57.8206 150.416L57.8206 146.58L59.1646 146.58L59.1646 154L57.8906 154L57.8906 151.998L58.1006 152.53C57.8579 153.025 57.4939 153.407 57.0086 153.678C56.5233 153.949 55.9773 154.084 55.3706 154.084ZM61.7232 154L61.7232 146.58L63.0112 146.58L63.0112 148.596L62.8852 148.092C63.0906 147.579 63.4359 147.187 63.9212 146.916C64.4066 146.645 65.0039 146.51 65.7132 146.51L65.7132 147.812C65.6572 147.803 65.6012 147.798 65.5452 147.798C65.4986 147.798 65.4519 147.798 65.4052 147.798C64.6866 147.798 64.1172 148.013 63.6972 148.442C63.2772 148.871 63.0672 149.492 63.0672 150.304L63.0672 154L61.7232 154ZM69.6165 154L66.3685 146.58L67.7685 146.58L70.6525 153.3L69.9805 153.3L72.9205 146.58L74.2365 146.58L70.9885 154L69.6165 154ZM78.5897 154.084C77.7964 154.084 77.0964 153.921 76.4897 153.594C75.8924 153.267 75.4257 152.819 75.0897 152.25C74.7631 151.681 74.5997 151.027 74.5997 150.29C74.5997 149.553 74.7584 148.899 75.0757 148.33C75.4024 147.761 75.8457 147.317 76.4057 147C76.9751 146.673 77.6144 146.51 78.3237 146.51C79.0424 146.51 79.6771 146.669 80.2277 146.986C80.7784 147.303 81.2077 147.751 81.5157 148.33C81.8331 148.899 81.9917 149.567 81.9917 150.332C81.9917 150.388 81.9871 150.453 81.9777 150.528C81.9777 150.603 81.9731 150.673 81.9637 150.738L75.6497 150.738L75.6497 149.772L81.2637 149.772L80.7177 150.108C80.7271 149.632 80.6291 149.207 80.4237 148.834C80.2184 148.461 79.9337 148.171 79.5697 147.966C79.2151 147.751 78.7997 147.644 78.3237 147.644C77.8571 147.644 77.4417 147.751 77.0777 147.966C76.7137 148.171 76.4291 148.465 76.2237 148.848C76.0184 149.221 75.9157 149.651 75.9157 150.136L75.9157 150.36C75.9157 150.855 76.0277 151.298 76.2517 151.69C76.4851 152.073 76.8071 152.371 77.2177 152.586C77.6284 152.801 78.0997 152.908 78.6317 152.908C79.0704 152.908 79.4671 152.833 79.8217 152.684C80.1857 152.535 80.5031 152.311 80.7737 152.012L81.5157 152.88C81.1797 153.272 80.7597 153.571 80.2557 153.776C79.7611 153.981 79.2057 154.084 78.5897 154.084ZM84.0433 156.8C83.6886 156.8 83.3433 156.739 83.0073 156.618C82.6713 156.506 82.3819 156.338 82.1393 156.114L82.7133 155.106C82.8999 155.283 83.1053 155.419 83.3293 155.512C83.5533 155.605 83.7913 155.652 84.0433 155.652C84.3699 155.652 84.6406 155.568 84.8553 155.4C85.0699 155.232 85.2706 154.933 85.4573 154.504L85.9193 153.482L86.0593 153.314L88.9713 146.58L90.2873 146.58L86.6893 154.742C86.4746 155.265 86.2319 155.675 85.9613 155.974C85.6999 156.273 85.4106 156.483 85.0933 156.604C84.7759 156.735 84.4259 156.8 84.0433 156.8ZM85.8073 154.238L82.4193 146.58L83.8193 146.58L86.7033 153.188L85.8073 154.238ZM95.6233 156.8C95.2687 156.8 94.9233 156.739 94.5873 156.618C94.2513 156.506 93.962 156.338 93.7193 156.114L94.2933 155.106C94.48 155.283 94.6853 155.419 94.9093 155.512C95.1333 155.605 95.3713 155.652 95.6233 155.652C95.95 155.652 96.2207 155.568 96.4353 155.4C96.65 155.232 96.8507 154.933 97.0373 154.504L97.4993 153.482L97.6393 153.314L100.551 146.58L101.867 146.58L98.2693 154.742C98.0547 155.265 97.812 155.675 97.5413 155.974C97.28 156.273 96.9907 156.483 96.6733 156.604C96.356 156.735 96.006 156.8 95.6233 156.8ZM97.3873 154.238L93.9993 146.58L95.3993 146.58L98.2833 153.188L97.3873 154.238ZM106.095 154.084C105.348 154.084 104.685 153.921 104.107 153.594C103.528 153.267 103.071 152.819 102.735 152.25C102.399 151.671 102.231 151.018 102.231 150.29C102.231 149.553 102.399 148.899 102.735 148.33C103.071 147.761 103.528 147.317 104.107 147C104.685 146.673 105.348 146.51 106.095 146.51C106.832 146.51 107.49 146.673 108.069 147C108.657 147.317 109.114 147.761 109.441 148.33C109.777 148.89 109.945 149.543 109.945 150.29C109.945 151.027 109.777 151.681 109.441 152.25C109.114 152.819 108.657 153.267 108.069 153.594C107.49 153.921 106.832 154.084 106.095 154.084ZM106.095 152.908C106.571 152.908 106.995 152.801 107.369 152.586C107.751 152.371 108.05 152.068 108.265 151.676C108.479 151.275 108.587 150.813 108.587 150.29C108.587 149.758 108.479 149.301 108.265 148.918C108.05 148.526 107.751 148.223 107.369 148.008C106.995 147.793 106.571 147.686 106.095 147.686C105.619 147.686 105.194 147.793 104.821 148.008C104.447 148.223 104.149 148.526 103.925 148.918C103.701 149.301 103.589 149.758 103.589 150.29C103.589 150.813 103.701 151.275 103.925 151.676C104.149 152.068 104.447 152.371 104.821 152.586C105.194 152.801 105.619 152.908 106.095 152.908ZM114.925 154.084C114.291 154.084 113.731 153.967 113.245 153.734C112.769 153.501 112.396 153.146 112.125 152.67C111.864 152.185 111.733 151.578 111.733 150.85L111.733 146.58L113.077 146.58L113.077 150.696C113.077 151.424 113.25 151.97 113.595 152.334C113.95 152.698 114.445 152.88 115.079 152.88C115.546 152.88 115.952 152.787 116.297 152.6C116.643 152.404 116.909 152.124 117.095 151.76C117.282 151.387 117.375 150.939 117.375 150.416L117.375 146.58L118.719 146.58L118.719 154L117.445 154L117.445 151.998L117.655 152.53C117.413 153.025 117.049 153.407 116.563 153.678C116.078 153.949 115.532 154.084 114.925 154.084ZM126.606 154L123.848 146.58L125.122 146.58L127.572 153.3L126.97 153.3L129.518 146.58L130.652 146.58L133.144 153.3L132.556 153.3L135.062 146.58L136.266 146.58L133.494 154L132.206 154L129.868 147.868L130.26 147.868L127.894 154L126.606 154ZM140.602 154.084C139.856 154.084 139.193 153.921 138.614 153.594C138.036 153.267 137.578 152.819 137.242 152.25C136.906 151.671 136.738 151.018 136.738 150.29C136.738 149.553 136.906 148.899 137.242 148.33C137.578 147.761 138.036 147.317 138.614 147C139.193 146.673 139.856 146.51 140.602 146.51C141.34 146.51 141.998 146.673 142.576 147C143.164 147.317 143.622 147.761 143.948 148.33C144.284 148.89 144.452 149.543 144.452 150.29C144.452 151.027 144.284 151.681 143.948 152.25C143.622 152.819 143.164 153.267 142.576 153.594C141.998 153.921 141.34 154.084 140.602 154.084ZM140.602 152.908C141.078 152.908 141.503 152.801 141.876 152.586C142.259 152.371 142.558 152.068 142.772 151.676C142.987 151.275 143.094 150.813 143.094 150.29C143.094 149.758 142.987 149.301 142.772 148.918C142.558 148.526 142.259 148.223 141.876 148.008C141.503 147.793 141.078 147.686 140.602 147.686C140.126 147.686 139.702 147.793 139.328 148.008C138.955 148.223 138.656 148.526 138.432 148.918C138.208 149.301 138.096 149.758 138.096 150.29C138.096 150.813 138.208 151.275 138.432 151.676C138.656 152.068 138.955 152.371 139.328 152.586C139.702 152.801 140.126 152.908 140.602 152.908ZM149.433 154.084C148.798 154.084 148.238 153.967 147.753 153.734C147.277 153.501 146.904 153.146 146.633 152.67C146.372 152.185 146.241 151.578 146.241 150.85L146.241 146.58L147.585 146.58L147.585 150.696C147.585 151.424 147.758 151.97 148.103 152.334C148.458 152.698 148.952 152.88 149.587 152.88C150.054 152.88 150.46 152.787 150.805 152.6C151.15 152.404 151.416 152.124 151.603 151.76C151.79 151.387 151.883 150.939 151.883 150.416L151.883 146.58L153.227 146.58L153.227 154L151.953 154L151.953 151.998L152.163 152.53C151.92 153.025 151.556 153.407 151.071 153.678C150.586 153.949 150.04 154.084 149.433 154.084ZM155.786 154L155.786 143.612L157.13 143.612L157.13 154L155.786 154ZM162.762 154.084C162.043 154.084 161.399 153.925 160.83 153.608C160.27 153.291 159.827 152.847 159.5 152.278C159.173 151.709 159.01 151.046 159.01 150.29C159.01 149.534 159.173 148.876 159.5 148.316C159.827 147.747 160.27 147.303 160.83 146.986C161.399 146.669 162.043 146.51 162.762 146.51C163.387 146.51 163.952 146.65 164.456 146.93C164.96 147.21 165.361 147.63 165.66 148.19C165.968 148.75 166.122 149.45 166.122 150.29C166.122 151.13 165.973 151.83 165.674 152.39C165.385 152.95 164.988 153.375 164.484 153.664C163.98 153.944 163.406 154.084 162.762 154.084ZM162.874 152.908C163.341 152.908 163.761 152.801 164.134 152.586C164.517 152.371 164.815 152.068 165.03 151.676C165.254 151.275 165.366 150.813 165.366 150.29C165.366 149.758 165.254 149.301 165.03 148.918C164.815 148.526 164.517 148.223 164.134 148.008C163.761 147.793 163.341 147.686 162.874 147.686C162.398 147.686 161.973 147.793 161.6 148.008C161.227 148.223 160.928 148.526 160.704 148.918C160.48 149.301 160.368 149.758 160.368 150.29C160.368 150.813 160.48 151.275 160.704 151.676C160.928 152.068 161.227 152.371 161.6 152.586C161.973 152.801 162.398 152.908 162.874 152.908ZM165.408 154L165.408 151.998L165.492 150.276L165.352 148.554L165.352 143.612L166.696 143.612L166.696 154L165.408 154ZM18.151 171L18.151 160.612L19.495 160.612L19.495 171L18.151 171ZM22.0611 171L22.0611 163.58L23.4051 163.58L23.4051 171L22.0611 171ZM22.7331 162.152C22.4718 162.152 22.2524 162.068 22.0751 161.9C21.9071 161.732 21.8231 161.527 21.8231 161.284C21.8231 161.032 21.9071 160.822 22.0751 160.654C22.2524 160.486 22.4718 160.402 22.7331 160.402C22.9944 160.402 23.2091 160.486 23.3771 160.654C23.5544 160.813 23.6431 161.013 23.6431 161.256C23.6431 161.508 23.5591 161.723 23.3911 161.9C23.2231 162.068 23.0038 162.152 22.7331 162.152ZM27.0633 169.208L27.0913 167.486L31.3613 163.58L32.9853 163.58L29.7093 166.8L28.9813 167.416L27.0633 169.208ZM25.9713 171L25.9713 160.612L27.3153 160.612L27.3153 171L25.9713 171ZM31.6413 171L28.7293 167.388L29.5973 166.31L33.2933 171L31.6413 171ZM37.6014 171.084C36.8081 171.084 36.1081 170.921 35.5014 170.594C34.9041 170.267 34.4374 169.819 34.1014 169.25C33.7748 168.681 33.6114 168.027 33.6114 167.29C33.6114 166.553 33.7701 165.899 34.0874 165.33C34.4141 164.761 34.8574 164.317 35.4174 164C35.9868 163.673 36.6261 163.51 37.3354 163.51C38.0541 163.51 38.6888 163.669 39.2394 163.986C39.7901 164.303 40.2194 164.751 40.5274 165.33C40.8448 165.899 41.0034 166.567 41.0034 167.332C41.0034 167.388 40.9988 167.453 40.9894 167.528C40.9894 167.603 40.9848 167.673 40.9754 167.738L34.6614 167.738L34.6614 166.772L40.2754 166.772L39.7294 167.108C39.7388 166.632 39.6408 166.207 39.4354 165.834C39.2301 165.461 38.9454 165.171 38.5814 164.966C38.2268 164.751 37.8114 164.644 37.3354 164.644C36.8688 164.644 36.4534 164.751 36.0894 164.966C35.7254 165.171 35.4408 165.465 35.2354 165.848C35.0301 166.221 34.9274 166.651 34.9274 167.136L34.9274 167.36C34.9274 167.855 35.0394 168.298 35.2634 168.69C35.4968 169.073 35.8188 169.371 36.2294 169.586C36.6401 169.801 37.1114 169.908 37.6434 169.908C38.0821 169.908 38.4788 169.833 38.8334 169.684C39.1974 169.535 39.5148 169.311 39.7854 169.012L40.5274 169.88C40.1914 170.272 39.7714 170.571 39.2674 170.776C38.7728 170.981 38.2174 171.084 37.6014 171.084ZM49.1775 171.084C48.4308 171.084 47.8521 170.883 47.4415 170.482C47.0308 170.081 46.8255 169.507 46.8255 168.76L46.8255 161.956L48.1695 161.956L48.1695 168.704C48.1695 169.105 48.2675 169.413 48.4635 169.628C48.6688 169.843 48.9581 169.95 49.3315 169.95C49.7515 169.95 50.1015 169.833 50.3815 169.6L50.8015 170.566C50.5961 170.743 50.3488 170.874 50.0595 170.958C49.7795 171.042 49.4855 171.084 49.1775 171.084ZM45.5655 164.686L45.5655 163.58L50.2975 163.58L50.2975 164.686L45.5655 164.686ZM55.3583 171.084C54.6116 171.084 53.9489 170.921 53.3703 170.594C52.7916 170.267 52.3343 169.819 51.9983 169.25C51.6623 168.671 51.4943 168.018 51.4943 167.29C51.4943 166.553 51.6623 165.899 51.9983 165.33C52.3343 164.761 52.7916 164.317 53.3703 164C53.9489 163.673 54.6116 163.51 55.3583 163.51C56.0956 163.51 56.7536 163.673 57.3323 164C57.9203 164.317 58.3776 164.761 58.7043 165.33C59.0403 165.89 59.2083 166.543 59.2083 167.29C59.2083 168.027 59.0403 168.681 58.7043 169.25C58.3776 169.819 57.9203 170.267 57.3323 170.594C56.7536 170.921 56.0956 171.084 55.3583 171.084ZM55.3583 169.908C55.8343 169.908 56.2589 169.801 56.6323 169.586C57.0149 169.371 57.3136 169.068 57.5283 168.676C57.7429 168.275 57.8503 167.813 57.8503 167.29C57.8503 166.758 57.7429 166.301 57.5283 165.918C57.3136 165.526 57.0149 165.223 56.6323 165.008C56.2589 164.793 55.8343 164.686 55.3583 164.686C54.8823 164.686 54.4576 164.793 54.0843 165.008C53.7109 165.223 53.4123 165.526 53.1883 165.918C52.9643 166.301 52.8523 166.758 52.8523 167.29C52.8523 167.813 52.9643 168.275 53.1883 168.676C53.4123 169.068 53.7109 169.371 54.0843 169.586C54.4576 169.801 54.8823 169.908 55.3583 169.908ZM68.7607 171.084C68.1447 171.084 67.5801 170.944 67.0667 170.664C66.5627 170.375 66.1567 169.95 65.8487 169.39C65.5501 168.83 65.4007 168.13 65.4007 167.29C65.4007 166.45 65.5454 165.75 65.8347 165.19C66.1334 164.63 66.5347 164.21 67.0387 163.93C67.5521 163.65 68.1261 163.51 68.7607 163.51C69.4887 163.51 70.1327 163.669 70.6927 163.986C71.2527 164.303 71.6961 164.747 72.0227 165.316C72.3494 165.876 72.5127 166.534 72.5127 167.29C72.5127 168.046 72.3494 168.709 72.0227 169.278C71.6961 169.847 71.2527 170.291 70.6927 170.608C70.1327 170.925 69.4887 171.084 68.7607 171.084ZM64.8267 173.716L64.8267 163.58L66.1147 163.58L66.1147 165.582L66.0307 167.304L66.1707 169.026L66.1707 173.716L64.8267 173.716ZM68.6487 169.908C69.1247 169.908 69.5494 169.801 69.9227 169.586C70.3054 169.371 70.6041 169.068 70.8187 168.676C71.0427 168.275 71.1547 167.813 71.1547 167.29C71.1547 166.758 71.0427 166.301 70.8187 165.918C70.6041 165.526 70.3054 165.223 69.9227 165.008C69.5494 164.793 69.1247 164.686 68.6487 164.686C68.1821 164.686 67.7574 164.793 67.3747 165.008C67.0014 165.223 66.7027 165.526 66.4787 165.918C66.2641 166.301 66.1567 166.758 66.1567 167.29C66.1567 167.813 66.2641 168.275 66.4787 168.676C66.7027 169.068 67.0014 169.371 67.3747 169.586C67.7574 169.801 68.1821 169.908 68.6487 169.908ZM78.9073 171L78.9073 169.432L78.8373 169.138L78.8373 166.464C78.8373 165.895 78.6693 165.456 78.3333 165.148C78.0067 164.831 77.512 164.672 76.8493 164.672C76.4107 164.672 75.9813 164.747 75.5613 164.896C75.1413 165.036 74.7867 165.227 74.4973 165.47L73.9373 164.462C74.32 164.154 74.7773 163.921 75.3093 163.762C75.8507 163.594 76.4153 163.51 77.0033 163.51C78.0207 163.51 78.8047 163.757 79.3553 164.252C79.906 164.747 80.1813 165.503 80.1813 166.52L80.1813 171L78.9073 171ZM76.4713 171.084C75.9207 171.084 75.4353 170.991 75.0153 170.804C74.6047 170.617 74.2873 170.361 74.0633 170.034C73.8393 169.698 73.7273 169.32 73.7273 168.9C73.7273 168.499 73.8207 168.135 74.0073 167.808C74.2033 167.481 74.516 167.22 74.9453 167.024C75.384 166.828 75.972 166.73 76.7093 166.73L79.0613 166.73L79.0613 167.696L76.7653 167.696C76.0933 167.696 75.6407 167.808 75.4073 168.032C75.174 168.256 75.0573 168.527 75.0573 168.844C75.0573 169.208 75.202 169.502 75.4913 169.726C75.7807 169.941 76.182 170.048 76.6953 170.048C77.1993 170.048 77.638 169.936 78.0113 169.712C78.394 169.488 78.6693 169.161 78.8373 168.732L79.1033 169.656C78.926 170.095 78.6133 170.445 78.1653 170.706C77.7173 170.958 77.1527 171.084 76.4713 171.084ZM82.6685 171L82.6685 163.58L84.0125 163.58L84.0125 171L82.6685 171ZM83.3405 162.152C83.0792 162.152 82.8599 162.068 82.6825 161.9C82.5145 161.732 82.4305 161.527 82.4305 161.284C82.4305 161.032 82.5145 160.822 82.6825 160.654C82.8599 160.486 83.0792 160.402 83.3405 160.402C83.6019 160.402 83.8165 160.486 83.9845 160.654C84.1619 160.813 84.2505 161.013 84.2505 161.256C84.2505 161.508 84.1665 161.723 83.9985 161.9C83.8305 162.068 83.6112 162.152 83.3405 162.152ZM86.5787 171L86.5787 163.58L87.8667 163.58L87.8667 165.596L87.7407 165.092C87.946 164.579 88.2914 164.187 88.7767 163.916C89.262 163.645 89.8594 163.51 90.5687 163.51L90.5687 164.812C90.5127 164.803 90.4567 164.798 90.4007 164.798C90.354 164.798 90.3074 164.798 90.2607 164.798C89.542 164.798 88.9727 165.013 88.5527 165.442C88.1327 165.871 87.9227 166.492 87.9227 167.304L87.9227 171L86.5787 171ZM98.6286 171.084C97.882 171.084 97.3033 170.883 96.8926 170.482C96.482 170.081 96.2766 169.507 96.2766 168.76L96.2766 161.956L97.6206 161.956L97.6206 168.704C97.6206 169.105 97.7186 169.413 97.9146 169.628C98.12 169.843 98.4093 169.95 98.7826 169.95C99.2026 169.95 99.5526 169.833 99.8326 169.6L100.253 170.566C100.047 170.743 99.8 170.874 99.5106 170.958C99.2306 171.042 98.9366 171.084 98.6286 171.084ZM95.0166 164.686L95.0166 163.58L99.7486 163.58L99.7486 164.686L95.0166 164.686ZM104.809 171.084C104.063 171.084 103.4 170.921 102.821 170.594C102.243 170.267 101.785 169.819 101.449 169.25C101.113 168.671 100.945 168.018 100.945 167.29C100.945 166.553 101.113 165.899 101.449 165.33C101.785 164.761 102.243 164.317 102.821 164C103.4 163.673 104.063 163.51 104.809 163.51C105.547 163.51 106.205 163.673 106.783 164C107.371 164.317 107.829 164.761 108.155 165.33C108.491 165.89 108.659 166.543 108.659 167.29C108.659 168.027 108.491 168.681 108.155 169.25C107.829 169.819 107.371 170.267 106.783 170.594C106.205 170.921 105.547 171.084 104.809 171.084ZM104.809 169.908C105.285 169.908 105.71 169.801 106.083 169.586C106.466 169.371 106.765 169.068 106.979 168.676C107.194 168.275 107.301 167.813 107.301 167.29C107.301 166.758 107.194 166.301 106.979 165.918C106.765 165.526 106.466 165.223 106.083 165.008C105.71 164.793 105.285 164.686 104.809 164.686C104.333 164.686 103.909 164.793 103.535 165.008C103.162 165.223 102.863 165.526 102.639 165.918C102.415 166.301 102.303 166.758 102.303 167.29C102.303 167.813 102.415 168.275 102.639 168.676C102.863 169.068 103.162 169.371 103.535 169.586C103.909 169.801 104.333 169.908 104.809 169.908ZM113.766 173.8C113.085 173.8 112.422 173.702 111.778 173.506C111.143 173.319 110.625 173.049 110.224 172.694L110.868 171.658C111.213 171.957 111.638 172.19 112.142 172.358C112.646 172.535 113.173 172.624 113.724 172.624C114.601 172.624 115.245 172.419 115.656 172.008C116.067 171.597 116.272 170.972 116.272 170.132L116.272 168.564L116.412 167.094L116.342 165.61L116.342 163.58L117.616 163.58L117.616 169.992C117.616 171.299 117.289 172.26 116.636 172.876C115.983 173.492 115.026 173.8 113.766 173.8ZM113.598 170.692C112.879 170.692 112.235 170.543 111.666 170.244C111.106 169.936 110.658 169.511 110.322 168.97C109.995 168.429 109.832 167.803 109.832 167.094C109.832 166.375 109.995 165.75 110.322 165.218C110.658 164.677 111.106 164.257 111.666 163.958C112.235 163.659 112.879 163.51 113.598 163.51C114.233 163.51 114.811 163.641 115.334 163.902C115.857 164.154 116.272 164.546 116.58 165.078C116.897 165.61 117.056 166.282 117.056 167.094C117.056 167.897 116.897 168.564 116.58 169.096C116.272 169.628 115.857 170.029 115.334 170.3C114.811 170.561 114.233 170.692 113.598 170.692ZM113.752 169.516C114.247 169.516 114.685 169.413 115.068 169.208C115.451 169.003 115.749 168.718 115.964 168.354C116.188 167.99 116.3 167.57 116.3 167.094C116.3 166.618 116.188 166.198 115.964 165.834C115.749 165.47 115.451 165.19 115.068 164.994C114.685 164.789 114.247 164.686 113.752 164.686C113.257 164.686 112.814 164.789 112.422 164.994C112.039 165.19 111.736 165.47 111.512 165.834C111.297 166.198 111.19 166.618 111.19 167.094C111.19 167.57 111.297 167.99 111.512 168.354C111.736 168.718 112.039 169.003 112.422 169.208C112.814 169.413 113.257 169.516 113.752 169.516ZM123.488 171.084C122.695 171.084 121.995 170.921 121.388 170.594C120.791 170.267 120.324 169.819 119.988 169.25C119.661 168.681 119.498 168.027 119.498 167.29C119.498 166.553 119.657 165.899 119.974 165.33C120.301 164.761 120.744 164.317 121.304 164C121.873 163.673 122.513 163.51 123.222 163.51C123.941 163.51 124.575 163.669 125.126 163.986C125.677 164.303 126.106 164.751 126.414 165.33C126.731 165.899 126.89 166.567 126.89 167.332C126.89 167.388 126.885 167.453 126.876 167.528C126.876 167.603 126.871 167.673 126.862 167.738L120.548 167.738L120.548 166.772L126.162 166.772L125.616 167.108C125.625 166.632 125.527 166.207 125.322 165.834C125.117 165.461 124.832 165.171 124.468 164.966C124.113 164.751 123.698 164.644 123.222 164.644C122.755 164.644 122.34 164.751 121.976 164.966C121.612 165.171 121.327 165.465 121.122 165.848C120.917 166.221 120.814 166.651 120.814 167.136L120.814 167.36C120.814 167.855 120.926 168.298 121.15 168.69C121.383 169.073 121.705 169.371 122.116 169.586C122.527 169.801 122.998 169.908 123.53 169.908C123.969 169.908 124.365 169.833 124.72 169.684C125.084 169.535 125.401 169.311 125.672 169.012L126.414 169.88C126.078 170.272 125.658 170.571 125.154 170.776C124.659 170.981 124.104 171.084 123.488 171.084ZM131.304 171.084C130.558 171.084 129.979 170.883 129.568 170.482C129.158 170.081 128.952 169.507 128.952 168.76L128.952 161.956L130.296 161.956L130.296 168.704C130.296 169.105 130.394 169.413 130.59 169.628C130.796 169.843 131.085 169.95 131.458 169.95C131.878 169.95 132.228 169.833 132.508 169.6L132.928 170.566C132.723 170.743 132.476 170.874 132.186 170.958C131.906 171.042 131.612 171.084 131.304 171.084ZM127.692 164.686L127.692 163.58L132.424 163.58L132.424 164.686L127.692 164.686ZM138.515 163.51C139.122 163.51 139.654 163.627 140.111 163.86C140.578 164.093 140.942 164.448 141.203 164.924C141.465 165.4 141.595 166.002 141.595 166.73L141.595 171L140.251 171L140.251 166.884C140.251 166.165 140.074 165.624 139.719 165.26C139.374 164.896 138.884 164.714 138.249 164.714C137.773 164.714 137.358 164.807 137.003 164.994C136.649 165.181 136.373 165.456 136.177 165.82C135.991 166.184 135.897 166.637 135.897 167.178L135.897 171L134.553 171L134.553 160.612L135.897 160.612L135.897 165.582L135.631 165.05C135.874 164.565 136.247 164.187 136.751 163.916C137.255 163.645 137.843 163.51 138.515 163.51ZM147.387 171.084C146.593 171.084 145.893 170.921 145.287 170.594C144.689 170.267 144.223 169.819 143.887 169.25C143.56 168.681 143.397 168.027 143.397 167.29C143.397 166.553 143.555 165.899 143.873 165.33C144.199 164.761 144.643 164.317 145.203 164C145.772 163.673 146.411 163.51 147.121 163.51C147.839 163.51 148.474 163.669 149.025 163.986C149.575 164.303 150.005 164.751 150.313 165.33C150.63 165.899 150.789 166.567 150.789 167.332C150.789 167.388 150.784 167.453 150.775 167.528C150.775 167.603 150.77 167.673 150.761 167.738L144.447 167.738L144.447 166.772L150.061 166.772L149.515 167.108C149.524 166.632 149.426 166.207 149.221 165.834C149.015 165.461 148.731 165.171 148.367 164.966C148.012 164.751 147.597 164.644 147.121 164.644C146.654 164.644 146.239 164.751 145.875 164.966C145.511 165.171 145.226 165.465 145.021 165.848C144.815 166.221 144.713 166.651 144.713 167.136L144.713 167.36C144.713 167.855 144.825 168.298 145.049 168.69C145.282 169.073 145.604 169.371 146.015 169.586C146.425 169.801 146.897 169.908 147.429 169.908C147.867 169.908 148.264 169.833 148.619 169.684C148.983 169.535 149.3 169.311 149.571 169.012L150.313 169.88C149.977 170.272 149.557 170.571 149.053 170.776C148.558 170.981 148.003 171.084 147.387 171.084ZM152.655 171L152.655 163.58L153.943 163.58L153.943 165.596L153.817 165.092C154.022 164.579 154.368 164.187 154.853 163.916C155.338 163.645 155.936 163.51 156.645 163.51L156.645 164.812C156.589 164.803 156.533 164.798 156.477 164.798C156.43 164.798 156.384 164.798 156.337 164.798C155.618 164.798 155.049 165.013 154.629 165.442C154.209 165.871 153.999 166.492 153.999 167.304L153.999 171L152.655 171Z" fill="black"/>
<line x1="86.5" y1="49" x2="86.5" y2="88" stroke="#0078CC"/>
</svg>
