<svg width="59" height="236" viewBox="0 0 59 236" fill="none" xmlns="http://www.w3.org/2000/svg">
<g filter="url(#filter0_d_113_22)">
<path d="M29.6902 47.2865C16.4226 47.236 5.73016 36.7299 5.77917 23.8485C5.82819 10.9672 16.6003 0.542741 29.8678 0.593229C43.1354 0.643716 53.8278 11.1498 53.7788 24.0312C53.7298 36.9125 42.9577 47.337 29.6902 47.2865Z" fill="#0078CC" stroke="#0078CC"/>
<path d="M29.0045 227.461C15.737 227.41 5.04452 216.904 5.09353 204.023C5.14255 191.142 15.9146 180.717 29.1822 180.768C42.4498 180.818 53.1422 191.324 53.0932 204.206C53.0442 217.087 42.2721 227.511 29.0045 227.461Z" fill="#0078CC" stroke="#0078CC"/>
<path d="M29.3474 137.374C16.0798 137.323 5.38735 126.817 5.43637 113.936C5.48539 101.054 16.2575 90.63 29.525 90.6804C42.7926 90.7309 53.485 101.237 53.436 114.118C53.387 127 42.6149 137.424 29.3474 137.374Z" fill="#0078CC" stroke="#0078CC"/>
<line x1="30.6883" y1="47.7903" x2="30.5269" y2="90.1842" stroke="#0078CC"/>
<line x1="30.3454" y1="137.878" x2="30.1841" y2="180.271" stroke="#0078CC"/>
<path d="M29.9336 30.2922L29.9336 19.7322L30.6216 20.4842L27.4056 20.4842L27.4056 19.0922L31.5176 19.0922L31.5176 30.2922L29.9336 30.2922Z" fill="#E8E8E8"/>
<path d="M25.526 120.613L25.526 119.525L30.086 115.125C30.4913 114.741 30.79 114.405 30.982 114.117C31.1846 113.818 31.318 113.546 31.382 113.301C31.4566 113.045 31.494 112.8 31.494 112.565C31.494 111.989 31.2913 111.536 30.886 111.205C30.4806 110.874 29.8886 110.709 29.11 110.709C28.5126 110.709 27.974 110.81 27.494 111.013C27.014 111.205 26.598 111.509 26.246 111.925L25.158 110.981C25.5846 110.437 26.1553 110.021 26.87 109.733C27.5953 109.434 28.39 109.285 29.254 109.285C30.0326 109.285 30.71 109.413 31.286 109.669C31.862 109.914 32.3046 110.272 32.614 110.741C32.934 111.21 33.094 111.765 33.094 112.405C33.094 112.768 33.046 113.125 32.95 113.477C32.854 113.829 32.6726 114.202 32.406 114.597C32.1393 114.992 31.7553 115.434 31.254 115.925L27.19 119.845L26.806 119.221L33.574 119.221L33.574 120.613L25.526 120.613Z" fill="#E8E8E8"/>
<path d="M28.7832 210.828C27.9938 210.828 27.2258 210.705 26.4792 210.46C25.7432 210.215 25.1405 209.884 24.6712 209.468L25.4072 208.204C25.7805 208.556 26.2658 208.844 26.8632 209.068C27.4605 209.292 28.1005 209.404 28.7832 209.404C29.6152 209.404 30.2605 209.228 30.7192 208.876C31.1885 208.513 31.4232 208.028 31.4232 207.42C31.4232 206.833 31.1992 206.364 30.7512 206.012C30.3138 205.649 29.6152 205.468 28.6552 205.468L27.7592 205.468L27.7592 204.348L31.0872 200.252L31.3112 200.892L25.1832 200.892L25.1832 199.5L32.5752 199.5L32.5752 200.588L29.2632 204.668L28.4312 204.172L28.9592 204.172C30.3138 204.172 31.3272 204.476 31.9992 205.084C32.6818 205.692 33.0232 206.465 33.0232 207.404C33.0232 208.033 32.8685 208.609 32.5592 209.132C32.2498 209.655 31.7805 210.071 31.1512 210.38C30.5325 210.679 29.7432 210.828 28.7832 210.828Z" fill="#E8E8E8"/>
</g>
<defs>
<filter id="filter0_d_113_22" x="0.502777" y="0" width="57.8668" height="236.054" filterUnits="userSpaceOnUse" color-interpolation-filters="sRGB">
<feFlood flood-opacity="0" result="BackgroundImageFix"/>
<feColorMatrix in="SourceAlpha" type="matrix" values="0 0 0 0 0 0 0 0 0 0 0 0 0 0 0 0 0 0 127 0" result="hardAlpha"/>
<feOffset dy="4"/>
<feGaussianBlur stdDeviation="2"/>
<feComposite in2="hardAlpha" operator="out"/>
<feColorMatrix type="matrix" values="0 0 0 0 0 0 0 0 0 0 0 0 0 0 0 0 0 0 0.25 0"/>
<feBlend mode="normal" in2="BackgroundImageFix" result="effect1_dropShadow_113_22"/>
<feBlend mode="normal" in="SourceGraphic" in2="effect1_dropShadow_113_22" result="shape"/>
</filter>
</defs>
</svg>
